<svg width="21" height="22" viewBox="0 0 21 22" fill="none" xmlns="http://www.w3.org/2000/svg">
<path d="M10.5 21.25C4.70101 21.25 0 16.549 0 10.75C0 4.95101 4.70101 0.25 10.5 0.25C16.299 0.25 21 4.95101 21 10.75C20.9936 16.5464 16.2964 21.2436 10.5 21.25ZM2.1 10.9306C2.14968 15.5519 5.92316 19.265 10.5447 19.2403C15.1662 19.2153 18.8995 15.4619 18.8995 10.8403C18.8995 6.21873 15.1662 2.46526 10.5447 2.4403C5.92316 2.41558 2.14968 6.1287 2.1 10.75V10.9306ZM11.55 16H9.45V11.8H5.25V9.7H9.45V5.5H11.55V9.7H15.75V11.8H11.55V16Z" fill="white"/>
</svg>
