<svg width="22" height="22" viewBox="0 0 22 22" fill="none" xmlns="http://www.w3.org/2000/svg">
<path d="M11 21.5513C5.20101 21.5513 0.5 16.8503 0.5 11.0513C0.5 5.25228 5.20101 0.55127 11 0.55127C16.799 0.55127 21.5 5.25228 21.5 11.0513C21.4936 16.8476 16.7964 21.5449 11 21.5513ZM2.6 11.2319C2.64968 15.8532 6.42316 19.5663 11.0447 19.5416C15.6662 19.5166 19.3995 15.7631 19.3995 11.1416C19.3995 6.52 15.6662 2.76653 11.0447 2.74157C6.42316 2.71685 2.64968 6.42997 2.6 11.0513V11.2319ZM12.05 16.3013H9.95V12.1013H5.75V10.0013H9.95V5.80127H12.05V10.0013H16.25V12.1013H12.05V16.3013Z" fill="#449FD8"/>
</svg>
