<svg width="58" height="57" viewBox="0 0 58 57" fill="none" xmlns="http://www.w3.org/2000/svg">
<path d="M2.33398 12.4999C2.33398 9.67094 3.45779 6.95783 5.45818 4.95745C7.45857 2.95706 10.1717 1.83325 13.0007 1.83325H45.0007C47.8296 1.83325 50.5427 2.95706 52.5431 4.95745C54.5435 6.95783 55.6673 9.67094 55.6673 12.4999V44.4999C55.6673 47.3289 54.5435 50.042 52.5431 52.0424C50.5427 54.0428 47.8296 55.1666 45.0007 55.1666H13.0007C10.1717 55.1666 7.45857 54.0428 5.45818 52.0424C3.45779 50.042 2.33398 47.3289 2.33398 44.4999V12.4999Z" stroke="#139EC7" stroke-width="3" stroke-linecap="round" stroke-linejoin="round"/>
<path d="M19.6667 25.8333C23.3486 25.8333 26.3333 22.8486 26.3333 19.1667C26.3333 15.4848 23.3486 12.5 19.6667 12.5C15.9848 12.5 13 15.4848 13 19.1667C13 22.8486 15.9848 25.8333 19.6667 25.8333Z" stroke="#139EC7" stroke-width="3" stroke-linecap="round" stroke-linejoin="round"/>
<path d="M35.736 30.156L13 55.1666H45.3547C48.0896 55.1666 50.7125 54.0802 52.6464 52.1463C54.5802 50.2125 55.6667 47.5896 55.6667 44.8546V44.5C55.6667 43.2573 55.2 42.78 54.36 41.86L43.6133 30.14C43.1125 29.5936 42.5032 29.1577 41.8245 28.8599C41.1457 28.5622 40.4123 28.4092 39.6711 28.4107C38.9299 28.4122 38.1972 28.5681 37.5197 28.8686C36.8421 29.1692 36.2346 29.6076 35.736 30.156V30.156Z" stroke="#139EC7" stroke-width="3" stroke-linecap="round" stroke-linejoin="round"/>
</svg>
