<svg width="16" height="16" viewBox="0 0 16 16" fill="none" xmlns="http://www.w3.org/2000/svg">
<path d="M8 15.8125C3.65076 15.8125 0.125 12.2867 0.125 7.9375C0.125 3.58826 3.65076 0.0625 8 0.0625C12.3492 0.0625 15.875 3.58826 15.875 7.9375C15.8702 12.2848 12.3473 15.8077 8 15.8125ZM1.7 8.07295C1.73726 11.5389 4.56737 14.3238 8.0335 14.3052C11.4996 14.2865 14.2996 11.4714 14.2996 8.00522C14.2996 4.53905 11.4996 1.72395 8.0335 1.70522C4.56737 1.68669 1.73726 4.47152 1.7 7.9375V8.07295ZM8.7875 11.875H7.2125V8.725H4.0625V7.15H7.2125V4H8.7875V7.15H11.9375V8.725H8.7875V11.875Z" fill="white"/>
</svg>
