<svg width="16" height="17" viewBox="0 0 16 17" fill="none" xmlns="http://www.w3.org/2000/svg">
<path d="M8 16.3125C3.65076 16.3125 0.125 12.7867 0.125 8.4375C0.125 4.08826 3.65076 0.5625 8 0.5625C12.3492 0.5625 15.875 4.08826 15.875 8.4375C15.8702 12.7848 12.3473 16.3077 8 16.3125ZM1.7 8.57295C1.73726 12.0389 4.56737 14.8238 8.0335 14.8052C11.4996 14.7865 14.2996 11.9714 14.2996 8.50522C14.2996 5.03905 11.4996 2.22395 8.0335 2.20522C4.56737 2.18669 1.73726 4.97152 1.7 8.4375V8.57295ZM8.7875 12.375H7.2125V9.225H4.0625V7.65H7.2125V4.5H8.7875V7.65H11.9375V9.225H8.7875V12.375Z" fill="#139EC7"/>
</svg>
