<svg width="14" height="13" viewBox="0 0 14 13" fill="none" xmlns="http://www.w3.org/2000/svg">
<path d="M6.41634 10.6667V11.8333H1.74967C1.10801 11.8333 0.583008 11.3083 0.583008 10.6667V1.33332C0.583008 0.691656 1.10801 0.166656 1.74967 0.166656H12.2497C12.8913 0.166656 13.4163 0.691656 13.4163 1.33332V6.05832L13.2997 5.94166C13.008 5.64999 12.658 5.47499 12.2497 5.47499V2.49999H1.74967V10.6667H6.41634ZM12.483 6.75832L13.2413 7.51666C13.358 7.63332 13.358 7.86666 13.2413 7.98332L12.658 8.56666L11.433 7.34166L12.0163 6.75832C12.0747 6.69999 12.133 6.64166 12.2497 6.64166C12.3663 6.64166 12.4247 6.69999 12.483 6.75832V6.75832ZM12.308 8.85832L8.80801 12.4167H7.58301V11.1917L11.1413 7.63332L12.308 8.85832V8.85832Z" fill="#080808"/>
</svg>
