<svg width="14" height="13" viewBox="0 0 14 13" fill="none" xmlns="http://www.w3.org/2000/svg">
<path d="M6.41634 10.6666V11.8333H1.74967C1.10801 11.8333 0.583008 11.3083 0.583008 10.6666V1.33329C0.583008 0.691626 1.10801 0.166626 1.74967 0.166626H12.2497C12.8913 0.166626 13.4163 0.691626 13.4163 1.33329V6.05829L13.2997 5.94163C13.008 5.64996 12.658 5.47496 12.2497 5.47496V2.49996H1.74967V10.6666H6.41634ZM12.483 6.75829L13.2413 7.51663C13.358 7.63329 13.358 7.86663 13.2413 7.98329L12.658 8.56663L11.433 7.34163L12.0163 6.75829C12.0747 6.69996 12.133 6.64163 12.2497 6.64163C12.3663 6.64163 12.4247 6.69996 12.483 6.75829ZM12.308 8.85829L8.80801 12.4166H7.58301V11.1916L11.1413 7.63329L12.308 8.85829Z" fill="#4D4D4D"/>
</svg>
