<svg width="54" height="54" viewBox="0 0 54 54" fill="none" xmlns="http://www.w3.org/2000/svg">
<path d="M36.5997 36.2533C34.7605 38.1806 32.3852 39.5116 29.7812 40.0738C27.1771 40.636 24.4643 40.4037 21.9938 39.4069C19.5233 38.41 17.4089 36.6946 15.9242 34.4827C14.4395 32.2707 13.653 29.664 13.6664 27C13.6664 23.4638 15.0711 20.0724 17.5716 17.5719C20.0721 15.0714 23.4635 13.6667 26.9997 13.6667C30.5359 13.6667 33.9273 15.0714 36.4278 17.5719C38.9283 20.0724 40.333 23.4638 40.333 27V31C40.333 32.0609 40.7545 33.0783 41.5046 33.8284C42.2547 34.5786 43.2722 35 44.333 35C45.3939 35 46.4113 34.5786 47.1614 33.8284C47.9116 33.0783 48.333 32.0609 48.333 31V27C48.3282 22.4244 46.8524 17.9715 44.1235 14.2988C41.3945 10.626 37.557 7.92802 33.1775 6.603C28.7979 5.27798 24.1084 5.39618 19.8011 6.94015C15.4939 8.48412 11.7971 11.372 9.25667 15.1776C6.7162 18.9832 5.46661 23.5047 5.69234 28.0747C5.91808 32.6448 7.60719 37.0212 10.5103 40.5578C13.4135 44.0945 17.3768 46.6041 21.8152 47.716C26.2537 48.828 30.932 48.4835 35.1597 46.7333C35.4866 46.5674 35.8443 46.4706 36.2103 46.4491C36.5764 46.4276 36.9429 46.4818 37.287 46.6084C37.6312 46.7349 37.9455 46.9311 38.2104 47.1846C38.4753 47.4381 38.6851 47.7435 38.8267 48.0817C38.9682 48.42 39.0385 48.7838 39.0331 49.1504C39.0277 49.517 38.9467 49.8786 38.7953 50.2125C38.6439 50.5465 38.4252 50.8456 38.153 51.0912C37.8807 51.3368 37.5607 51.5236 37.213 51.64C31.9282 53.8311 26.0788 54.2646 20.5288 52.8763C14.9787 51.4881 10.0223 48.3517 6.39149 43.9304C2.76068 39.5092 0.648028 34.0374 0.365547 28.3234C0.0830655 22.6093 1.64574 16.9559 4.82276 12.1981C7.99979 7.44026 12.6227 3.83032 18.0088 1.90142C23.3948 -0.0274785 29.2585 -0.173065 34.7336 1.48616C40.2088 3.14539 45.0051 6.52146 48.4144 11.1157C51.8236 15.71 53.6649 21.2789 53.6664 27V31C53.6723 33.0005 53.0353 34.9501 51.8493 36.5611C50.6632 38.1722 48.9909 39.3596 47.0788 39.9481C45.1668 40.5367 43.1163 40.4953 41.2295 39.83C39.3428 39.1648 37.7198 37.9109 36.5997 36.2533ZM26.9997 35C29.1214 35 31.1563 34.1571 32.6565 32.6568C34.1568 31.1565 34.9997 29.1217 34.9997 27C34.9997 24.8783 34.1568 22.8434 32.6565 21.3431C31.1563 19.8428 29.1214 19 26.9997 19C24.878 19 22.8431 19.8428 21.3428 21.3431C19.8425 22.8434 18.9997 24.8783 18.9997 27C18.9997 29.1217 19.8425 31.1565 21.3428 32.6568C22.8431 34.1571 24.878 35 26.9997 35Z" fill="white"/>
</svg>
