<svg width="16" height="16" viewBox="0 0 16 16" fill="none" xmlns="http://www.w3.org/2000/svg">
<g clip-path="url(#clip0_1232_17978)">
<path d="M13.6541 2.34133C12.9119 1.59749 12.03 1.00761 11.0591 0.605584C10.0883 0.203557 9.04757 -0.00269902 7.99676 -0.00133606C3.57809 -0.00133606 -0.00390625 3.58066 -0.00390625 7.99933C-0.00390625 10.2087 0.892094 12.2093 2.34009 13.6573C3.08231 14.4012 3.96418 14.9911 4.93504 15.3931C5.9059 15.7951 6.94662 16.0014 7.99743 16C12.4161 16 15.9981 12.418 15.9981 7.99933C15.9981 5.79 15.1021 3.78933 13.6541 2.34133ZM12.6261 12.626C12.0189 13.2347 11.2974 13.7175 10.5031 14.0465C9.70875 14.3756 8.85722 14.5444 7.99743 14.5433C4.38209 14.5433 1.45143 11.6127 1.45143 7.99733C1.45035 7.13754 1.61918 6.28601 1.94822 5.49168C2.27726 4.69734 2.76002 3.97585 3.36876 3.36866C3.9758 2.75991 4.69717 2.27714 5.4914 1.9481C6.28563 1.61906 7.13707 1.45023 7.99676 1.45133C11.6114 1.45133 14.5421 4.382 14.5421 7.99666C14.5432 8.85636 14.3744 9.70781 14.0454 10.502C13.7163 11.2963 13.2335 12.0176 12.6248 12.6247L12.6261 12.626Z" fill="#FF1D1D"/>
<path d="M9.02503 8.00001L11.595 5.43002C11.7218 5.29183 11.7903 5.11003 11.7862 4.92255C11.7822 4.73507 11.7059 4.5564 11.5732 4.42384C11.4406 4.29129 11.2619 4.21508 11.0744 4.21114C10.8869 4.2072 10.7051 4.27582 10.567 4.40268L10.5677 4.40201L7.99769 6.97201L5.42769 4.40201C5.28951 4.27524 5.10771 4.20674 4.92023 4.2108C4.73275 4.21487 4.55408 4.29119 4.42152 4.42383C4.28897 4.55647 4.21276 4.73519 4.20882 4.92267C4.20488 5.11015 4.2735 5.29192 4.40036 5.43002L4.39969 5.42935L6.9697 7.99935L4.39969 10.5693C4.32739 10.6357 4.26925 10.716 4.22878 10.8054C4.18832 10.8948 4.16636 10.9914 4.16423 11.0895C4.16211 11.1876 4.17985 11.2852 4.21641 11.3762C4.25296 11.4673 4.30756 11.55 4.37693 11.6194C4.44629 11.6888 4.52899 11.7435 4.62003 11.7801C4.71107 11.8167 4.80858 11.8345 4.90669 11.8325C5.0048 11.8304 5.10147 11.8085 5.1909 11.7681C5.28032 11.7277 5.36064 11.6696 5.42703 11.5973L5.42769 11.5967L7.99769 9.02668L10.5677 11.5967C10.634 11.669 10.7143 11.7271 10.8037 11.7676C10.8931 11.8081 10.9898 11.83 11.0879 11.8321C11.186 11.8343 11.2835 11.8165 11.3746 11.78C11.4656 11.7434 11.5484 11.6888 11.6178 11.6194C11.6872 11.5501 11.7418 11.4674 11.7785 11.3763C11.8151 11.2853 11.8329 11.1878 11.8308 11.0897C11.8288 10.9916 11.8069 10.8949 11.7665 10.8055C11.726 10.7161 11.668 10.6357 11.5957 10.5693L11.595 10.5687L9.02503 8.00001Z" fill="#FF1D1D"/>
</g>
<defs>
<clipPath id="clip0_1232_17978">
<rect width="16" height="16" fill="white"/>
</clipPath>
</defs>
</svg>
