<svg width="16" height="16" viewBox="0 0 16 16" fill="none" xmlns="http://www.w3.org/2000/svg">
<path fill-rule="evenodd" clip-rule="evenodd" d="M1.8873 8.00005C1.8873 4.62421 4.62396 1.88755 7.99981 1.88755C11.3756 1.88755 14.1123 4.62421 14.1123 8.00005C14.1123 11.3759 11.3756 14.1125 7.99981 14.1125C4.62396 14.1125 1.8873 11.3759 1.8873 8.00005ZM7.99981 0.612549C3.9198 0.612549 0.612305 3.92005 0.612305 8.00005C0.612305 12.0801 3.9198 15.3875 7.99981 15.3875C12.0798 15.3875 15.3873 12.0801 15.3873 8.00005C15.3873 3.92005 12.0798 0.612549 7.99981 0.612549ZM6.20059 5.29927C5.95163 5.05031 5.54798 5.05031 5.29902 5.29927C5.05007 5.54823 5.05007 5.95187 5.29902 6.20083L7.09824 8.00005L5.29902 9.79927C5.05007 10.0482 5.05007 10.4519 5.29902 10.7008C5.54798 10.9498 5.95163 10.9498 6.20059 10.7008L7.99981 8.90161L9.79903 10.7008C10.048 10.9498 10.4516 10.9498 10.7006 10.7008C10.9495 10.4519 10.9495 10.0482 10.7006 9.79927L8.90137 8.00005L10.7006 6.20083C10.9495 5.95187 10.9495 5.54823 10.7006 5.29927C10.4516 5.05031 10.048 5.05031 9.79903 5.29927L7.99981 7.09849L6.20059 5.29927Z" fill="#080808"/>
</svg>
