<svg width="18" height="18" viewBox="0 0 18 18" fill="none" xmlns="http://www.w3.org/2000/svg">
<g clip-path="url(#clip0_1233_18344)">
<path d="M15.3604 2.63401C14.5254 1.79719 13.5333 1.13358 12.4411 0.681297C11.3488 0.229016 10.178 -0.00302113 8.99587 -0.00148781C4.02487 -0.00148781 -0.00488281 4.02826 -0.00488281 8.99926C-0.00488281 11.4848 1.00312 13.7355 2.63212 15.3645C3.46711 16.2013 4.45921 16.8649 5.55143 17.3172C6.64365 17.7695 7.81446 18.0015 8.99662 18C13.9676 18 17.9974 13.9703 17.9974 8.99926C17.9974 6.51376 16.9894 4.26301 15.3604 2.63401ZM14.2039 14.2043C13.5208 14.8891 12.7091 15.4322 11.8155 15.8024C10.9219 16.1725 9.96388 16.3625 8.99662 16.3613C4.92937 16.3613 1.63237 13.0643 1.63237 8.99701C1.63116 8.02975 1.82109 7.07178 2.19126 6.17815C2.56143 5.28452 3.10453 4.47284 3.78937 3.78976C4.47229 3.10492 5.28383 2.5618 6.17734 2.19163C7.07085 1.82145 8.02871 1.63153 8.99587 1.63276C13.0624 1.63276 16.3594 4.92976 16.3594 8.99626C16.3606 9.96342 16.1707 10.9213 15.8006 11.8148C15.4304 12.7083 14.8872 13.5199 14.2024 14.2028L14.2039 14.2043Z" fill="white"/>
<path d="M10.1532 8.99999L13.0444 6.10874C13.187 5.95329 13.2641 5.74876 13.2595 5.53784C13.2549 5.32693 13.1691 5.12593 13.0199 4.9768C12.8706 4.82768 12.6696 4.74195 12.4587 4.73751C12.2478 4.73307 12.0433 4.81027 11.8879 4.95299L11.8887 4.95224L8.99741 7.84349L6.10616 4.95224C5.9507 4.80962 5.74617 4.73256 5.53526 4.73713C5.32434 4.7417 5.12334 4.82756 4.97421 4.97679C4.82509 5.12601 4.73936 5.32706 4.73492 5.53798C4.73049 5.7489 4.80769 5.95338 4.95041 6.10874L4.94966 6.10799L7.84091 8.99924L4.94966 11.8905C4.86831 11.9651 4.80291 12.0554 4.75738 12.156C4.71186 12.2566 4.68716 12.3653 4.68476 12.4757C4.68237 12.5861 4.70233 12.6958 4.74346 12.7982C4.78458 12.9007 4.84601 12.9938 4.92404 13.0718C5.00208 13.1499 5.09511 13.2114 5.19753 13.2526C5.29996 13.2938 5.40966 13.3138 5.52003 13.3115C5.6304 13.3092 5.73916 13.2846 5.83976 13.2391C5.94036 13.1936 6.03072 13.1283 6.10541 13.047L6.10616 13.0462L8.99741 10.155L11.8887 13.0462C11.9633 13.1276 12.0536 13.193 12.1542 13.2385C12.2548 13.284 12.3635 13.3087 12.4739 13.3111C12.5842 13.3135 12.6939 13.2936 12.7964 13.2524C12.8988 13.2113 12.9919 13.1499 13.07 13.0719C13.1481 12.9938 13.2096 12.9008 13.2508 12.7984C13.292 12.6959 13.312 12.5862 13.3097 12.4759C13.3074 12.3655 13.2827 12.2567 13.2373 12.1561C13.1918 12.0555 13.1265 11.9652 13.0452 11.8905L13.0444 11.8897L10.1532 8.99999Z" fill="white"/>
</g>
<defs>
<clipPath id="clip0_1233_18344">
<rect width="18" height="18" fill="white"/>
</clipPath>
</defs>
</svg>
