<svg width="12" height="12" viewBox="0 0 12 12" fill="none" xmlns="http://www.w3.org/2000/svg">
<path d="M5.17281 4.76945H10.8065V10.8064H5.17281V4.76945ZM1.19368 4.76945H4.53479V10.8064H1.19368V4.76945ZM10.8065 4.13143H1.19368V1.19357H10.8065V4.13143ZM11.1255 0.555542H0.874674C0.698581 0.555542 0.555664 0.698251 0.555664 0.874557V11.1254C0.555664 11.3015 0.698581 11.4444 0.874674 11.4444H11.1255C11.3016 11.4444 11.4445 11.3015 11.4445 11.1254V0.874557C11.4445 0.698251 11.3016 0.555542 11.1255 0.555542Z" fill="#4D4D4D"/>
<path d="M8.43122 9.26347C7.75207 9.26347 7.19954 8.7109 7.19954 8.03166C7.19954 7.46287 7.58725 6.98312 8.11221 6.8422V8.03166C8.11221 8.20784 8.25504 8.35067 8.43122 8.35067H9.62077C9.47985 8.87572 9.00006 9.26347 8.43122 9.26347ZM9.62075 7.71265H8.75023V6.8422C9.17337 6.95579 9.50714 7.28954 9.62075 7.71265ZM8.43122 6.16205C7.40027 6.16205 6.56152 7.00075 6.56152 8.03166C6.56152 9.0627 7.40027 9.90149 8.43122 9.90149C9.46218 9.90149 10.3009 9.0627 10.3009 8.03166C10.3009 7.00075 9.46218 6.16205 8.43122 6.16205Z" fill="#4D4D4D"/>
<path d="M6.48674 2.31667C6.6774 2.31667 6.83252 2.47179 6.83252 2.66248C6.83252 2.85316 6.6774 3.00829 6.48674 3.00829C6.29607 3.00829 6.14095 2.85316 6.14095 2.66248C6.14095 2.47179 6.29607 2.31667 6.48674 2.31667ZM6.48674 3.64631C7.0292 3.64631 7.47054 3.20497 7.47054 2.66248C7.47054 2.11999 7.0292 1.67865 6.48674 1.67865C5.94427 1.67865 5.50293 2.11999 5.50293 2.66248C5.50293 3.20497 5.94427 3.64631 6.48674 3.64631Z" fill="#4D4D4D"/>
<path d="M9.0922 2.31667C9.28289 2.31667 9.43801 2.47179 9.43801 2.66248C9.43801 2.85316 9.28289 3.00829 9.0922 3.00829C8.90154 3.00829 8.74642 2.85316 8.74642 2.66248C8.74642 2.47179 8.90154 2.31667 9.0922 2.31667ZM9.0922 3.64631C9.63469 3.64631 10.076 3.20497 10.076 2.66248C10.076 2.11999 9.63469 1.67865 9.0922 1.67865C8.54974 1.67865 8.1084 2.11999 8.1084 2.66248C8.1084 3.20497 8.54974 3.64631 9.0922 3.64631Z" fill="#4D4D4D"/>
<path d="M2.24284 7.16884H3.48509C3.66126 7.16884 3.8041 7.02601 3.8041 6.84983C3.8041 6.67365 3.66126 6.53082 3.48509 6.53082H2.24284C2.06666 6.53082 1.92383 6.67365 1.92383 6.84983C1.92383 7.02601 2.06666 7.16884 2.24284 7.16884Z" fill="#4D4D4D"/>
<path d="M3.48509 7.71265H2.24284C2.06666 7.71265 1.92383 7.85548 1.92383 8.03166C1.92383 8.20784 2.06666 8.35067 2.24284 8.35067H3.48509C3.66126 8.35067 3.8041 8.20784 3.8041 8.03166C3.8041 7.85548 3.66126 7.71265 3.48509 7.71265Z" fill="#4D4D4D"/>
<path d="M3.48509 8.89468H2.24284C2.06666 8.89468 1.92383 9.03752 1.92383 9.21369C1.92383 9.38987 2.06666 9.53271 2.24284 9.53271H3.48509C3.66126 9.53271 3.8041 9.38987 3.8041 9.21369C3.8041 9.03752 3.66126 8.89468 3.48509 8.89468Z" fill="#4D4D4D"/>
</svg>
