<svg width="14" height="14" viewBox="0 0 14 14" fill="none" xmlns="http://www.w3.org/2000/svg">
<path d="M6.17281 5.76958H11.8065V11.8065H6.17281V5.76958ZM2.19368 5.76958H5.53479V11.8065H2.19368V5.76958ZM11.8065 5.13155H2.19368V2.19369H11.8065V5.13155ZM12.1255 1.55566H1.87467C1.69858 1.55566 1.55566 1.69837 1.55566 1.87468V12.1255C1.55566 12.3016 1.69858 12.4446 1.87467 12.4446H12.1255C12.3016 12.4446 12.4445 12.3016 12.4445 12.1255V1.87468C12.4445 1.69837 12.3016 1.55566 12.1255 1.55566" fill="#4D4D4D"/>
<path d="M9.43122 10.2635C8.75207 10.2635 8.19954 9.71096 8.19954 9.03172C8.19954 8.46293 8.58725 7.98318 9.11221 7.84226V9.03172C9.11221 9.2079 9.25504 9.35073 9.43122 9.35073H10.6208C10.4799 9.87578 10.0001 10.2635 9.43122 10.2635ZM10.6207 8.71271H9.75023V7.84226C10.1734 7.95585 10.5071 8.2896 10.6207 8.71271ZM9.43122 7.16211C8.40027 7.16211 7.56152 8.00081 7.56152 9.03172C7.56152 10.0628 8.40027 10.9015 9.43122 10.9015C10.4622 10.9015 11.3009 10.0628 11.3009 9.03172C11.3009 8.00081 10.4622 7.16211 9.43122 7.16211Z" fill="#4D4D4D"/>
<path d="M7.48674 3.31673C7.6774 3.31673 7.83252 3.47186 7.83252 3.66254C7.83252 3.85322 7.6774 4.00835 7.48674 4.00835C7.29607 4.00835 7.14095 3.85322 7.14095 3.66254C7.14095 3.47186 7.29607 3.31673 7.48674 3.31673ZM7.48674 4.64637C8.0292 4.64637 8.47054 4.20503 8.47054 3.66254C8.47054 3.12005 8.0292 2.67871 7.48674 2.67871C6.94427 2.67871 6.50293 3.12005 6.50293 3.66254C6.50293 4.20503 6.94427 4.64637 7.48674 4.64637Z" fill="#4D4D4D"/>
<path d="M10.0922 3.31673C10.2829 3.31673 10.438 3.47186 10.438 3.66254C10.438 3.85322 10.2829 4.00835 10.0922 4.00835C9.90154 4.00835 9.74642 3.85322 9.74642 3.66254C9.74642 3.47186 9.90154 3.31673 10.0922 3.31673ZM10.0922 4.64637C10.6347 4.64637 11.076 4.20503 11.076 3.66254C11.076 3.12005 10.6347 2.67871 10.0922 2.67871C9.54974 2.67871 9.1084 3.12005 9.1084 3.66254C9.1084 4.20503 9.54974 4.64637 10.0922 4.64637Z" fill="#4D4D4D"/>
<path d="M3.24284 8.16903H4.48509C4.66126 8.16903 4.8041 8.0262 4.8041 7.85002C4.8041 7.67384 4.66126 7.53101 4.48509 7.53101H3.24284C3.06666 7.53101 2.92383 7.67384 2.92383 7.85002C2.92383 8.0262 3.06666 8.16903 3.24284 8.16903Z" fill="#4D4D4D"/>
<path d="M4.48509 8.71265H3.24284C3.06666 8.71265 2.92383 8.85548 2.92383 9.03166C2.92383 9.20784 3.06666 9.35067 3.24284 9.35067H4.48509C4.66126 9.35067 4.8041 9.20784 4.8041 9.03166C4.8041 8.85548 4.66126 8.71265 4.48509 8.71265Z" fill="#4D4D4D"/>
<path d="M4.48509 9.89478H3.24284C3.06666 9.89478 2.92383 10.0376 2.92383 10.2138C2.92383 10.39 3.06666 10.5328 3.24284 10.5328H4.48509C4.66126 10.5328 4.8041 10.39 4.8041 10.2138C4.8041 10.0376 4.66126 9.89478 4.48509 9.89478Z" fill="#4D4D4D"/>
</svg>
