<svg width="14" height="12" viewBox="0 0 14 12" fill="none" xmlns="http://www.w3.org/2000/svg">
<path d="M12.8327 10.0833V4.25C12.8327 3.94058 12.7098 3.64383 12.491 3.42504C12.2722 3.20625 11.9754 3.08333 11.666 3.08333H7.72035C7.50364 3.08333 7.29122 3.02296 7.1069 2.90901C6.92258 2.79506 6.77363 2.63202 6.67677 2.43817L6.15527 1.39517C6.05835 1.20123 5.90932 1.03813 5.72488 0.924171C5.54045 0.810212 5.3279 0.749899 5.1111 0.75H2.33268C2.02326 0.75 1.72652 0.872916 1.50772 1.09171C1.28893 1.3105 1.16602 1.60725 1.16602 1.91667V10.0833C1.16602 10.3928 1.28893 10.6895 1.50772 10.9083C1.72652 11.1271 2.02326 11.25 2.33268 11.25H11.666C11.9754 11.25 12.2722 11.1271 12.491 10.9083C12.7098 10.6895 12.8327 10.3928 12.8327 10.0833Z" stroke="#4D4D4D" stroke-width="1.33333" stroke-linecap="round" stroke-linejoin="round"/>
</svg>
