<svg width="14" height="14" viewBox="0 0 14 14" fill="none" xmlns="http://www.w3.org/2000/svg">
<path d="M7.02513 10.6554C7.06187 10.6677 7.08637 10.6922 7.09861 10.729C7.11086 10.7658 7.10474 10.8026 7.08024 10.8394L5.55546 12.3666C5.31051 12.612 5.02882 12.8082 4.71039 12.9554C4.39196 13.1026 4.06741 13.1885 3.73673 13.213C3.40606 13.2376 3.07538 13.213 2.7447 13.1394C2.41403 13.0658 2.11397 12.9125 1.84453 12.6794C1.51385 12.4218 1.25666 12.109 1.07295 11.741C0.889239 11.373 0.791261 11.005 0.779014 10.637C0.766767 10.269 0.821879 9.89486 0.944352 9.51459C1.06683 9.13432 1.27503 8.80311 1.56896 8.52097L3.93881 6.14734C4.31848 5.76707 4.75938 5.48493 5.26152 5.30092C5.76366 5.11692 6.27805 5.06785 6.80468 5.15372C7.27008 5.22732 7.6375 5.36226 7.90694 5.55853C8.17638 5.7548 8.3907 5.98174 8.54992 6.23934C8.57441 6.30067 8.57135 6.34667 8.54073 6.37734C8.51011 6.40801 8.47643 6.43561 8.43969 6.46014C8.40295 6.48468 8.36009 6.52148 8.3111 6.57054L8.1825 6.69935C8.06003 6.83428 7.91306 6.90175 7.7416 6.90175C7.57014 6.90175 7.41398 6.83121 7.27314 6.69015C7.13229 6.54908 6.97614 6.44174 6.80468 6.36814C6.63322 6.29454 6.44338 6.26387 6.23518 6.27614C6.02698 6.28841 5.84327 6.31907 5.68405 6.36814C5.52484 6.41721 5.3595 6.52761 5.18804 6.69935L2.46914 9.42259C2.30992 9.58206 2.19358 9.76606 2.12009 9.9746C2.04661 10.1831 2.02211 10.3917 2.04661 10.6002C2.0711 10.8087 2.13234 11.0173 2.23032 11.2258C2.3283 11.4344 2.48751 11.6 2.70796 11.7226C3.01414 11.9312 3.34482 12.0048 3.69999 11.9434C4.05516 11.8821 4.35522 11.7349 4.60017 11.5018L5.77591 10.3426C5.8004 10.3058 5.83714 10.2997 5.88613 10.3242C6.25355 10.4837 6.63322 10.5941 7.02513 10.6554ZM12.1322 1.34486C12.4629 1.60247 12.7201 1.90914 12.9038 2.26488C13.0875 2.62062 13.1916 2.98862 13.2161 3.3689C13.2406 3.74917 13.1855 4.12944 13.0508 4.50971C12.9161 4.88999 12.7017 5.22119 12.4078 5.50333L10.038 7.87696C9.6583 8.25724 9.2174 8.53324 8.71526 8.70498C8.21312 8.87671 7.69261 8.92578 7.15373 8.85218C6.68833 8.79084 6.32704 8.65591 6.06984 8.44737C5.81265 8.23884 5.59832 8.0119 5.42686 7.76656C5.40237 7.71749 5.40849 7.67456 5.44523 7.63776L5.77591 7.30656C5.91063 7.18389 6.06372 7.12255 6.23518 7.12255C6.40664 7.12255 6.55361 7.18389 6.67608 7.30656C6.82305 7.45376 6.98839 7.56416 7.1721 7.63776C7.35581 7.71136 7.54564 7.74816 7.7416 7.74816C7.93755 7.74816 8.12739 7.71136 8.3111 7.63776C8.49481 7.56416 8.65402 7.45376 8.78874 7.30656L11.5076 4.60171C11.6669 4.44225 11.7832 4.25211 11.8567 4.03131C11.9302 3.8105 11.9547 3.59583 11.9302 3.3873C11.9057 3.17876 11.8383 2.97636 11.7281 2.78009C11.6179 2.58382 11.4586 2.41821 11.2504 2.28328C10.9565 2.08701 10.632 2.01341 10.2768 2.06248C9.92161 2.11154 9.61543 2.26488 9.35824 2.52248L8.20087 3.6817C8.16413 3.7185 8.12739 3.72463 8.09064 3.7001C7.74772 3.5529 7.36805 3.43636 6.95165 3.3505C6.90266 3.3505 6.87816 3.32596 6.87816 3.27689C6.87816 3.22783 6.88429 3.19716 6.89653 3.18489L8.42132 1.65767C8.66627 1.41233 8.94796 1.21606 9.26638 1.06886C9.58481 0.921658 9.90324 0.829657 10.2217 0.792856C10.5401 0.756056 10.8708 0.786723 11.2137 0.884858C11.5566 0.982993 11.8628 1.13633 12.1322 1.34486Z" fill="#4D4D4D"/>
</svg>
