<svg width="14" height="14" viewBox="0 0 14 14" fill="none" xmlns="http://www.w3.org/2000/svg">
<path d="M2.91699 12.25H9.91699C10.5358 12.25 11.1293 12.0042 11.5669 11.5666C12.0045 11.129 12.2503 10.5355 12.2503 9.91667V2.91667C12.2503 2.60725 12.1274 2.3105 11.9086 2.09171C11.6898 1.87292 11.3931 1.75 11.0837 1.75H5.25033C4.94091 1.75 4.64416 1.87292 4.42537 2.09171C4.20658 2.3105 4.08366 2.60725 4.08366 2.91667V10.5C4.08366 11.4666 3.88358 12.25 2.91699 12.25Z" stroke="#4D4D4D" stroke-linecap="round" stroke-linejoin="round"/>
<path d="M1.75 5.83332C1.75 5.5239 1.87292 5.22716 2.09171 5.00837C2.3105 4.78957 2.60725 4.66666 2.91667 4.66666H4.08333V10.7917C4.08333 11.5967 3.72167 12.25 2.91667 12.25C2.11167 12.25 1.75 11.5967 1.75 10.7917V5.83332Z" stroke="#4D4D4D" stroke-linecap="round" stroke-linejoin="round"/>
<path d="M7.00033 5.25001C7.32249 5.25001 7.58366 4.98884 7.58366 4.66668C7.58366 4.34451 7.32249 4.08334 7.00033 4.08334C6.67816 4.08334 6.41699 4.34451 6.41699 4.66668C6.41699 4.98884 6.67816 5.25001 7.00033 5.25001Z" stroke="#4D4D4D" stroke-linecap="round"/>
<path d="M6.41699 9.91666H8.16699M6.41699 8.16666H9.91699H6.41699Z" stroke="#4D4D4D" stroke-linecap="round"/>
</svg>
