<svg width="12" height="12" viewBox="0 0 12 12" fill="none" xmlns="http://www.w3.org/2000/svg">
<path d="M6.42039 5.2999C6.14039 5.2299 5.86039 5.0899 5.65039 4.8799C5.44039 4.8099 5.37039 4.5999 5.37039 4.4599C5.37039 4.3199 5.44039 4.1099 5.58039 4.0399C5.79039 3.8999 6.00039 3.7599 6.21039 3.8299C6.63039 3.8299 6.98039 4.0399 7.19039 4.3199L7.82039 3.4799C7.61039 3.2699 7.40039 3.1299 7.19039 2.9899C6.98039 2.8499 6.70039 2.7799 6.42039 2.7799V1.7999H5.58039V2.7799C5.23039 2.8499 4.88039 3.0599 4.60039 3.3399C4.32039 3.6899 4.11039 4.1099 4.18039 4.5299C4.18039 4.9499 4.32039 5.3699 4.60039 5.6499C4.95039 5.9999 5.44039 6.2099 5.86039 6.4199C6.07039 6.4899 6.35039 6.6299 6.56039 6.7699C6.70039 6.9099 6.77039 7.1199 6.77039 7.3299C6.77039 7.5399 6.70039 7.7499 6.56039 7.9599C6.35039 8.1699 6.07039 8.2399 5.86039 8.2399C5.58039 8.2399 5.23039 8.1699 5.02039 7.9599C4.81039 7.8199 4.60039 7.6099 4.46039 7.3999L3.76039 8.1699C3.97039 8.4499 4.18039 8.6599 4.46039 8.8699C4.81039 9.0799 5.23039 9.2899 5.65039 9.2899V10.1999H6.42039V9.1499C6.84039 9.0799 7.19039 8.8699 7.47039 8.5899C7.82039 8.2399 8.03039 7.6799 8.03039 7.1899C8.03039 6.7699 7.89039 6.2799 7.54039 5.9999C7.19039 5.6499 6.84039 5.4399 6.42039 5.2999V5.2999ZM6.00039 0.399902C2.92039 0.399902 0.400391 2.9199 0.400391 5.9999C0.400391 9.0799 2.92039 11.5999 6.00039 11.5999C9.08039 11.5999 11.6004 9.0799 11.6004 5.9999C11.6004 2.9199 9.08039 0.399902 6.00039 0.399902ZM6.00039 10.8299C3.34039 10.8299 1.17039 8.6599 1.17039 5.9999C1.17039 3.3399 3.34039 1.1699 6.00039 1.1699C8.66039 1.1699 10.8304 3.3399 10.8304 5.9999C10.8304 8.6599 8.66039 10.8299 6.00039 10.8299V10.8299Z" fill="#4D4D4D"/>
</svg>
