<svg width="14" height="14" viewBox="0 0 14 14" fill="none" xmlns="http://www.w3.org/2000/svg">
<path d="M1.16699 3.06246C1.16699 2.55965 1.36673 2.07744 1.72227 1.7219C2.07781 1.36636 2.56002 1.16663 3.06283 1.16663H9.18783C9.69063 1.16663 10.1728 1.36636 10.5284 1.7219C10.8839 2.07744 11.0837 2.55965 11.0837 3.06246V5.83738C11.0351 5.83461 10.9865 5.83324 10.9378 5.83329H10.2087V3.06246C10.2087 2.79172 10.1011 2.53206 9.90966 2.34062C9.71822 2.14918 9.45857 2.04163 9.18783 2.04163H3.06283C2.79208 2.04163 2.53243 2.14918 2.34099 2.34062C2.14954 2.53206 2.04199 2.79172 2.04199 3.06246V9.77079C2.04199 10.3343 2.49933 10.7916 3.06283 10.7916H3.50033V10.9375C3.50033 11.1912 3.53824 11.4362 3.60941 11.6666H3.06283C2.56002 11.6666 2.07781 11.4669 1.72227 11.1114C1.36673 10.7558 1.16699 10.2736 1.16699 9.77079V3.06246ZM3.93783 2.91663C3.82179 2.91663 3.71051 2.96272 3.62847 3.04477C3.54642 3.12681 3.50033 3.23809 3.50033 3.35413C3.50033 3.47016 3.54642 3.58144 3.62847 3.66349C3.71051 3.74553 3.82179 3.79163 3.93783 3.79163H8.31283C8.42886 3.79163 8.54014 3.74553 8.62219 3.66349C8.70423 3.58144 8.75033 3.47016 8.75033 3.35413C8.75033 3.23809 8.70423 3.12681 8.62219 3.04477C8.54014 2.96272 8.42886 2.91663 8.31283 2.91663H3.93783ZM4.66699 4.81246C4.66699 4.69643 4.71309 4.58515 4.79513 4.5031C4.87718 4.42105 4.98846 4.37496 5.10449 4.37496H8.31283C8.42886 4.37496 8.54014 4.42105 8.62219 4.5031C8.70423 4.58515 8.75033 4.69643 8.75033 4.81246C8.75033 4.92849 8.70423 5.03977 8.62219 5.12182C8.54014 5.20387 8.42886 5.24996 8.31283 5.24996H5.10449C4.98846 5.24996 4.87718 5.20387 4.79513 5.12182C4.71309 5.03977 4.66699 4.92849 4.66699 4.81246ZM4.08366 8.31246C4.08366 7.80965 4.2834 7.32744 4.63894 6.9719C4.99447 6.61637 5.47669 6.41663 5.97949 6.41663H10.9378C11.1868 6.41663 11.4333 6.46566 11.6633 6.56094C11.8933 6.65621 12.1023 6.79586 12.2784 6.9719C12.4544 7.14795 12.5941 7.35694 12.6893 7.58696C12.7846 7.81697 12.8337 8.0635 12.8337 8.31246V10.9375C12.8337 11.1864 12.7846 11.433 12.6893 11.663C12.5941 11.893 12.4544 12.102 12.2784 12.278C12.1023 12.4541 11.8933 12.5937 11.6633 12.689C11.4333 12.7843 11.1868 12.8333 10.9378 12.8333H5.97949C5.73053 12.8333 5.484 12.7843 5.25399 12.689C5.02398 12.5937 4.81498 12.4541 4.63894 12.278C4.46289 12.102 4.32325 11.893 4.22797 11.663C4.1327 11.433 4.08366 11.1864 4.08366 10.9375V8.31246ZM5.97949 7.29163C5.68549 7.29163 5.42008 7.41588 5.23399 7.61538L8.45866 9.68796L11.6833 7.61538C11.588 7.5131 11.4726 7.43157 11.3443 7.37587C11.216 7.32017 11.0777 7.29149 10.9378 7.29163H5.97949ZM4.95866 10.9375C4.95866 11.501 5.41599 11.9583 5.97949 11.9583H10.9378C11.2086 11.9583 11.4682 11.8507 11.6597 11.6593C11.8511 11.4679 11.9587 11.2082 11.9587 10.9375V8.47813L8.69549 10.5764C8.62487 10.6218 8.54265 10.646 8.45866 10.646C8.37467 10.646 8.29245 10.6218 8.22183 10.5764L4.95866 8.47813V10.9375Z" fill="#4D4D4D"/>
</svg>
