<svg width="12" height="14" viewBox="0 0 12 14" fill="none" xmlns="http://www.w3.org/2000/svg">
<path d="M11.8337 7.00001L9.50033 9.33334L8.67783 8.51084L9.59949 7.58334H6.54866C6.45149 8.45541 6.13667 9.28907 5.63313 10.0077C5.1296 10.7263 4.4535 11.3068 3.66699 11.6958C3.65859 12.1547 3.47061 12.5919 3.14341 12.9136C2.81621 13.2354 2.37588 13.416 1.91699 13.4167C0.948659 13.4167 0.166992 12.635 0.166992 11.6667C0.166992 10.6983 0.948659 9.91668 1.91699 9.91668C2.47116 9.91668 2.95533 10.1792 3.27616 10.5817C3.83409 10.2795 4.31355 9.851 4.67618 9.33036C5.0388 8.80971 5.27453 8.21142 5.36449 7.58334H3.55616C3.31699 8.26001 2.67533 8.75001 1.91699 8.75001C0.948659 8.75001 0.166992 7.96834 0.166992 7.00001C0.166992 6.03168 0.948659 5.25001 1.91699 5.25001C2.67533 5.25001 3.31699 5.74001 3.56199 6.41668H5.37033C5.18366 5.11584 4.38449 4.02501 3.27616 3.41834C2.95533 3.82084 2.47116 4.08334 1.91699 4.08334C0.948659 4.08334 0.166992 3.30168 0.166992 2.33334C0.166992 1.36501 0.948659 0.583344 1.91699 0.583344C2.37556 0.583302 2.8157 0.763856 3.14213 1.08592C3.46856 1.40799 3.65502 1.84565 3.66116 2.30418C4.44767 2.69322 5.12376 3.27373 5.6273 3.99234C6.13084 4.71095 6.44566 5.5446 6.54283 6.41668H9.59366L8.67199 5.48918L9.50033 4.66668L11.8337 7.00001Z" fill="#4D4D4D"/>
</svg>
