<svg width="14" height="14" viewBox="0 0 14 14" fill="none" xmlns="http://www.w3.org/2000/svg">
<path d="M1.75 4.7542C1.49351 4.7542 1.26462 4.66666 1.11031 4.5355C0.959214 4.40706 0.9 4.25771 0.9 4.1292V2.2167C0.9 2.08819 0.959214 1.93883 1.11031 1.8104C1.26462 1.67923 1.49351 1.5917 1.75 1.5917H4.75C5.00649 1.5917 5.23538 1.67923 5.38969 1.8104C5.54079 1.93883 5.6 2.08819 5.6 2.2167V4.1292C5.6 4.25771 5.54079 4.40706 5.38969 4.5355C5.23538 4.66666 5.00649 4.7542 4.75 4.7542H1.75ZM1.75 13.0417C1.49351 13.0417 1.26462 12.9542 1.11031 12.823C0.959214 12.6946 0.9 12.5452 0.9 12.4167V7.3167C0.9 7.18819 0.959214 7.03883 1.11031 6.9104L0.697618 6.42487L1.11031 6.9104C1.26462 6.77923 1.49351 6.6917 1.75 6.6917H4.75C5.00649 6.6917 5.23538 6.77923 5.38969 6.9104C5.54079 7.03883 5.6 7.18819 5.6 7.3167V12.4167C5.6 12.5452 5.54079 12.6946 5.38969 12.823C5.23538 12.9542 5.00649 13.0417 4.75 13.0417H1.75ZM12.8897 1.8104L13.3107 1.31514L12.8897 1.8104C13.0408 1.93883 13.1 2.08819 13.1 2.2167V7.3167C13.1 7.44521 13.0408 7.59456 12.8897 7.723C12.7354 7.85416 12.5065 7.9417 12.25 7.9417H9.25C8.99351 7.9417 8.76462 7.85416 8.61031 7.723C8.45921 7.59456 8.4 7.44521 8.4 7.3167V2.2167C8.4 2.08819 8.45921 1.93883 8.61031 1.8104C8.76462 1.67923 8.99351 1.5917 9.25 1.5917H12.25C12.5065 1.5917 12.7354 1.67923 12.8897 1.8104ZM9.25 13.0417C8.99351 13.0417 8.76462 12.9542 8.61031 12.823C8.45921 12.6946 8.4 12.5452 8.4 12.4167V11.1417C8.4 11.0132 8.45921 10.8638 8.61031 10.7354C8.76463 10.6042 8.99351 10.5167 9.25 10.5167H12.25C12.5065 10.5167 12.7354 10.6042 12.8897 10.7354C13.0408 10.8638 13.1 11.0132 13.1 11.1417V12.4167C13.1 12.5452 13.0408 12.6946 12.8897 12.823C12.7354 12.9542 12.5065 13.0417 12.25 13.0417H9.25Z" stroke="#080808" stroke-width="1.3"/>
</svg>
