<svg width="48" height="48" viewBox="0 0 48 48" fill="none" xmlns="http://www.w3.org/2000/svg">
<rect width="48" height="48" rx="8" fill="white" fill-opacity="0.2"/>
<path d="M10 18.8997C9.15657 18.8997 8.37399 18.6135 7.81922 18.1419C7.26939 17.6745 7 17.0789 7 16.4997V11.3997C7 10.8205 7.26939 10.2248 7.81922 9.75745C8.37399 9.28589 9.15657 8.99967 10 8.99967H18C18.8434 8.99967 19.626 9.28589 20.1808 9.75745C20.7306 10.2248 21 10.8205 21 11.3997V16.4997C21 17.0789 20.7306 17.6745 20.1808 18.1419C19.626 18.6135 18.8434 18.8997 18 18.8997H10ZM7.81922 40.2419L7.17506 40.9997L7.81922 40.2419C7.26939 39.7745 7 39.1789 7 38.5997V24.9997C7 24.4205 7.26939 23.8248 7.81922 23.3574C8.37399 22.8859 9.15657 22.5997 10 22.5997H18C18.8434 22.5997 19.626 22.8859 20.1808 23.3574C20.7306 23.8248 21 24.4205 21 24.9997V38.5997C21 39.1789 20.7306 39.7745 20.1808 40.2419L20.8284 41.0038L20.1808 40.2419C19.626 40.7135 18.8434 40.9997 18 40.9997H10C9.15657 40.9997 8.37399 40.7135 7.81922 40.2419ZM30 40.9997C29.1566 40.9997 28.374 40.7135 27.8192 40.2419C27.2694 39.7745 27 39.1789 27 38.5997V35.1997C27 34.6205 27.2694 34.0248 27.8192 33.5574C28.374 33.0859 29.1566 32.7997 30 32.7997H38C38.8434 32.7997 39.626 33.0859 40.1808 33.5574C40.7306 34.0248 41 34.6205 41 35.1997V38.5997C41 39.1789 40.7306 39.7745 40.1808 40.2419C39.626 40.7135 38.8434 40.9997 38 40.9997H30ZM30 27.3997C29.1566 27.3997 28.374 27.1135 27.8192 26.6419C27.2694 26.1745 27 25.5789 27 24.9997V11.3997C27 10.8205 27.2694 10.2248 27.8192 9.75745C28.374 9.28589 29.1566 8.99967 30 8.99967H38C38.8434 8.99967 39.626 9.28589 40.1808 9.75745C40.7306 10.2248 41 10.8205 41 11.3997V24.9997C41 25.5789 40.7306 26.1745 40.1808 26.6419C39.626 27.1135 38.8434 27.3997 38 27.3997H30Z" stroke="white" stroke-width="2"/>
</svg>
