<svg width="16" height="16" viewBox="0 0 16 16" fill="none" xmlns="http://www.w3.org/2000/svg">
<path fill-rule="evenodd" clip-rule="evenodd" d="M6.29037 1.88755C6.24195 1.88755 6.19896 1.91853 6.18365 1.96447L5.88429 2.86255H10.1153L9.81596 1.96447C9.80065 1.91853 9.75766 1.88755 9.70924 1.88755H6.29037ZM11.4593 2.86255L11.0255 1.56128C10.8367 0.994708 10.3065 0.612549 9.70924 0.612549H6.29037C5.69315 0.612549 5.16293 0.994708 4.97408 1.56128L4.54032 2.86255H2.7498H1.2498C0.897723 2.86255 0.612305 3.14797 0.612305 3.50005C0.612305 3.85213 0.897723 4.13755 1.2498 4.13755H2.15339L2.72369 12.6921C2.82481 14.2089 4.08464 15.3876 5.6048 15.3876H10.3948C11.915 15.3876 13.1748 14.2089 13.2759 12.6921L13.8462 4.13755H14.7498C15.1019 4.13755 15.3873 3.85213 15.3873 3.50005C15.3873 3.14797 15.1019 2.86255 14.7498 2.86255H13.2498H11.4593ZM12.5684 4.13755H10.9998H4.9998H3.43122L3.99587 12.6073C4.05234 13.4544 4.75588 14.1125 5.6048 14.1125H10.3948C11.2437 14.1125 11.9473 13.4544 12.0037 12.6073L12.5684 4.13755Z" fill="#080808"/>
</svg>
