<svg width="13" height="15" viewBox="0 0 13 15" fill="none" xmlns="http://www.w3.org/2000/svg">
<path d="M2.84998 7.33089C2.73063 7.33089 2.61617 7.3783 2.53178 7.46269C2.44739 7.54708 2.39998 7.66154 2.39998 7.78089C2.39998 7.90024 2.44739 8.0147 2.53178 8.09909C2.61617 8.18348 2.73063 8.23089 2.84998 8.23089C2.96932 8.23089 3.08378 8.18348 3.16817 8.09909C3.25256 8.0147 3.29998 7.90024 3.29998 7.78089C3.29998 7.66154 3.25256 7.54708 3.16817 7.46269C3.08378 7.3783 2.96932 7.33089 2.84998 7.33089ZM2.39998 9.58089C2.39998 9.46154 2.44739 9.34708 2.53178 9.26269C2.61617 9.1783 2.73063 9.13089 2.84998 9.13089C2.96932 9.13089 3.08378 9.1783 3.16817 9.26269C3.25256 9.34708 3.29998 9.46154 3.29998 9.58089C3.29998 9.70024 3.25256 9.8147 3.16817 9.89909C3.08378 9.98348 2.96932 10.0309 2.84998 10.0309C2.73063 10.0309 2.61617 9.98348 2.53178 9.89909C2.44739 9.8147 2.39998 9.70024 2.39998 9.58089ZM4.19998 7.78089C4.19998 7.66154 4.24739 7.54708 4.33178 7.46269C4.41617 7.3783 4.53063 7.33089 4.64998 7.33089H8.24998C8.36932 7.33089 8.48378 7.3783 8.56817 7.46269C8.65257 7.54708 8.69998 7.66154 8.69998 7.78089C8.69998 7.90024 8.65257 8.0147 8.56817 8.09909C8.48378 8.18348 8.36932 8.23089 8.24998 8.23089H4.64998C4.53063 8.23089 4.41617 8.18348 4.33178 8.09909C4.24739 8.0147 4.19998 7.90024 4.19998 7.78089ZM4.64998 9.13089C4.53063 9.13089 4.41617 9.1783 4.33178 9.26269C4.24739 9.34708 4.19998 9.46154 4.19998 9.58089C4.19998 9.70024 4.24739 9.8147 4.33178 9.89909C4.41617 9.98348 4.53063 10.0309 4.64998 10.0309H8.24998C8.36932 10.0309 8.48378 9.98348 8.56817 9.89909C8.65257 9.8147 8.69998 9.70024 8.69998 9.58089C8.69998 9.46154 8.65257 9.34708 8.56817 9.26269C8.48378 9.1783 8.36932 9.13089 8.24998 9.13089H4.64998ZM2.39998 0.13089C1.92259 0.13089 1.46475 0.320532 1.12718 0.658098C0.789618 0.995663 0.599976 1.4535 0.599976 1.93089V10.9309C0.599976 11.4083 0.789618 11.8661 1.12718 12.2037C1.46475 12.5412 1.92259 12.7309 2.39998 12.7309H8.69998C9.17737 12.7309 9.6352 12.5412 9.97277 12.2037C10.3103 11.8661 10.5 11.4083 10.5 10.9309V5.00349C10.4997 4.64557 10.3572 4.30242 10.104 4.04949L6.58138 0.52599C6.3283 0.273073 5.98517 0.130966 5.62738 0.13089H2.39998ZM1.49998 1.93089C1.49998 1.69219 1.5948 1.46328 1.76358 1.29449C1.93236 1.12571 2.16128 1.03089 2.39998 1.03089H5.09998V4.18089C5.09998 4.53893 5.24221 4.88231 5.49538 5.13548C5.74856 5.38866 6.09193 5.53089 6.44998 5.53089H9.59998V10.9309C9.59998 11.1696 9.50515 11.3985 9.33637 11.5673C9.16759 11.7361 8.93867 11.8309 8.69998 11.8309H2.39998C2.16128 11.8309 1.93236 11.7361 1.76358 11.5673C1.5948 11.3985 1.49998 11.1696 1.49998 10.9309V1.93089ZM5.99998 4.18089V1.21719L9.41368 4.63089H6.44998C6.33063 4.63089 6.21617 4.58348 6.13178 4.49909C6.04739 4.4147 5.99998 4.30024 5.99998 4.18089ZM11.4 5.53089C11.6387 5.53089 11.8676 5.62571 12.0364 5.79449C12.2052 5.96328 12.3 6.19219 12.3 6.43089V10.9849C12.3 11.4506 12.2083 11.9117 12.0301 12.3419C11.8518 12.7721 11.5907 13.163 11.2614 13.4923C10.9321 13.8216 10.5412 14.0828 10.111 14.261C9.68075 14.4392 9.21964 14.5309 8.75398 14.5309H3.29998C3.06128 14.5309 2.83236 14.4361 2.66358 14.2673C2.4948 14.0985 2.39998 13.8696 2.39998 13.6309H8.69998C9.41606 13.6309 10.1028 13.3464 10.6092 12.8401C11.1155 12.3337 11.4 11.647 11.4 10.9309V5.53089Z" fill="#080808"/>
</svg>
