<svg width="48" height="48" viewBox="0 0 48 48" fill="none" xmlns="http://www.w3.org/2000/svg">
<rect width="48" height="48" rx="8" fill="white" fill-opacity="0.2"/>
<path d="M15.5996 24C15.2814 24 14.9761 24.1264 14.7511 24.3515C14.526 24.5765 14.3996 24.8817 14.3996 25.2C14.3996 25.5183 14.526 25.8235 14.7511 26.0485C14.9761 26.2736 15.2814 26.4 15.5996 26.4C15.9179 26.4 16.2231 26.2736 16.4481 26.0485C16.6732 25.8235 16.7996 25.5183 16.7996 25.2C16.7996 24.8817 16.6732 24.5765 16.4481 24.3515C16.2231 24.1264 15.9179 24 15.5996 24ZM14.3996 30C14.3996 29.6817 14.526 29.3765 14.7511 29.1515C14.9761 28.9264 15.2814 28.8 15.5996 28.8C15.9179 28.8 16.2231 28.9264 16.4481 29.1515C16.6732 29.3765 16.7996 29.6817 16.7996 30C16.7996 30.3183 16.6732 30.6235 16.4481 30.8485C16.2231 31.0736 15.9179 31.2 15.5996 31.2C15.2814 31.2 14.9761 31.0736 14.7511 30.8485C14.526 30.6235 14.3996 30.3183 14.3996 30ZM19.1996 25.2C19.1996 24.8817 19.326 24.5765 19.5511 24.3515C19.7761 24.1264 20.0814 24 20.3996 24H29.9996C30.3179 24 30.6231 24.1264 30.8481 24.3515C31.0732 24.5765 31.1996 24.8817 31.1996 25.2C31.1996 25.5183 31.0732 25.8235 30.8481 26.0485C30.6231 26.2736 30.3179 26.4 29.9996 26.4H20.3996C20.0814 26.4 19.7761 26.2736 19.5511 26.0485C19.326 25.8235 19.1996 25.5183 19.1996 25.2ZM20.3996 28.8C20.0814 28.8 19.7761 28.9264 19.5511 29.1515C19.326 29.3765 19.1996 29.6817 19.1996 30C19.1996 30.3183 19.326 30.6235 19.5511 30.8485C19.7761 31.0736 20.0814 31.2 20.3996 31.2H29.9996C30.3179 31.2 30.6231 31.0736 30.8481 30.8485C31.0732 30.6235 31.1996 30.3183 31.1996 30C31.1996 29.6817 31.0732 29.3765 30.8481 29.1515C30.6231 28.9264 30.3179 28.8 29.9996 28.8H20.3996ZM14.3996 4.8C13.1266 4.8 11.9057 5.30572 11.0055 6.20589C10.1053 7.10606 9.59961 8.32696 9.59961 9.6V33.6C9.59961 34.873 10.1053 36.0939 11.0055 36.9941C11.9057 37.8943 13.1266 38.4 14.3996 38.4H31.1996C32.4727 38.4 33.6936 37.8943 34.5937 36.9941C35.4939 36.0939 35.9996 34.873 35.9996 33.6V17.7936C35.9988 16.8391 35.6189 15.9241 34.9436 15.2496L25.55 5.8536C24.8751 5.17916 23.9601 4.80021 23.006 4.8H14.3996ZM11.9996 9.6C11.9996 8.96348 12.2525 8.35303 12.7026 7.90295C13.1526 7.45286 13.7631 7.2 14.3996 7.2H21.5996V15.6C21.5996 16.5548 21.9789 17.4705 22.654 18.1456C23.3292 18.8207 24.2448 19.2 25.1996 19.2H33.5996V33.6C33.5996 34.2365 33.3468 34.847 32.8967 35.2971C32.4466 35.7471 31.8361 36 31.1996 36H14.3996C13.7631 36 13.1526 35.7471 12.7026 35.2971C12.2525 34.847 11.9996 34.2365 11.9996 33.6V9.6ZM23.9996 15.6V7.6968L33.1028 16.8H25.1996C24.8814 16.8 24.5761 16.6736 24.3511 16.4485C24.126 16.2235 23.9996 15.9183 23.9996 15.6ZM38.3996 19.2C39.0361 19.2 39.6466 19.4529 40.0967 19.9029C40.5468 20.353 40.7996 20.9635 40.7996 21.6V33.744C40.7996 34.9858 40.555 36.2154 40.0798 37.3627C39.6046 38.5099 38.9081 39.5523 38.03 40.4304C37.1519 41.3085 36.1095 42.005 34.9623 42.4802C33.815 42.9554 32.5854 43.2 31.3436 43.2H16.7996C16.1631 43.2 15.5526 42.9471 15.1026 42.4971C14.6525 42.047 14.3996 41.4365 14.3996 40.8H31.1996C33.1092 40.8 34.9405 40.0414 36.2908 38.6912C37.641 37.3409 38.3996 35.5096 38.3996 33.6V19.2Z" fill="white"/>
</svg>
