<svg width="12" height="12" viewBox="0 0 12 12" fill="none" xmlns="http://www.w3.org/2000/svg">
<path d="M3.08333 3.66667H6.58333M3.08333 6H8.91667H3.08333Z" stroke="#080808" stroke-width="1.125" stroke-linecap="round" stroke-linejoin="round"/>
<path d="M0.75 10.8358V1.91667C0.75 1.60725 0.872916 1.3105 1.09171 1.09171C1.3105 0.872916 1.60725 0.75 1.91667 0.75H10.0833C10.3928 0.75 10.6895 0.872916 10.9083 1.09171C11.1271 1.3105 11.25 1.60725 11.25 1.91667V7.75C11.25 8.05942 11.1271 8.35616 10.9083 8.57496C10.6895 8.79375 10.3928 8.91667 10.0833 8.91667H3.64392C3.46905 8.91669 3.29643 8.95602 3.13882 9.03175C2.9812 9.10747 2.84262 9.21766 2.73333 9.35417L1.37358 11.054C1.32833 11.1107 1.26658 11.152 1.19686 11.172C1.12714 11.1921 1.0529 11.19 0.984419 11.1661C0.915936 11.1421 0.856592 11.0975 0.814595 11.0383C0.772599 10.9791 0.750026 10.9084 0.75 10.8358V10.8358Z" stroke="#080808" stroke-width="1.125"/>
</svg>
