<svg width="14" height="14" viewBox="0 0 14 14" fill="none" xmlns="http://www.w3.org/2000/svg">
<path d="M0.333008 2.49999C0.333008 1.92536 0.561281 1.37426 0.96761 0.96793C1.37394 0.561601 1.92504 0.333328 2.49967 0.333328H9.49967C10.0743 0.333328 10.6254 0.561601 11.0317 0.96793C11.4381 1.37426 11.6663 1.92536 11.6663 2.49999V5.67133C11.6108 5.66816 11.5553 5.66661 11.4997 5.66666H10.6663V2.49999C10.6663 2.19058 10.5434 1.89383 10.3246 1.67504C10.1058 1.45624 9.80909 1.33333 9.49967 1.33333H2.49967C2.19026 1.33333 1.89351 1.45624 1.67472 1.67504C1.45592 1.89383 1.33301 2.19058 1.33301 2.49999V10.1667C1.33301 10.8107 1.85567 11.3333 2.49967 11.3333H2.99967V11.5C2.99967 11.79 3.04301 12.07 3.12434 12.3333H2.49967C1.92504 12.3333 1.37394 12.1051 0.96761 11.6987C0.561281 11.2924 0.333008 10.7413 0.333008 10.1667V2.49999ZM3.49967 2.33333C3.36707 2.33333 3.23989 2.38601 3.14612 2.47977C3.05235 2.57354 2.99967 2.70072 2.99967 2.83333C2.99967 2.96594 3.05235 3.09311 3.14612 3.18688C3.23989 3.28065 3.36707 3.33333 3.49967 3.33333H8.49967C8.63228 3.33333 8.75946 3.28065 8.85323 3.18688C8.947 3.09311 8.99967 2.96594 8.99967 2.83333C8.99967 2.70072 8.947 2.57354 8.85323 2.47977C8.75946 2.38601 8.63228 2.33333 8.49967 2.33333H3.49967ZM4.33301 4.5C4.33301 4.36739 4.38569 4.24021 4.47945 4.14644C4.57322 4.05267 4.7004 3.99999 4.83301 3.99999H8.49967C8.63228 3.99999 8.75946 4.05267 8.85323 4.14644C8.947 4.24021 8.99967 4.36739 8.99967 4.5C8.99967 4.6326 8.947 4.75978 8.85323 4.85355C8.75946 4.94732 8.63228 5 8.49967 5H4.83301C4.7004 5 4.57322 4.94732 4.47945 4.85355C4.38569 4.75978 4.33301 4.6326 4.33301 4.5ZM3.66634 8.5C3.66634 7.92536 3.89461 7.37426 4.30094 6.96793C4.70727 6.5616 5.25837 6.33333 5.83301 6.33333H11.4997C11.7842 6.33333 12.066 6.38937 12.3288 6.49826C12.5917 6.60714 12.8305 6.76674 13.0317 6.96793C13.2329 7.16912 13.3925 7.40798 13.5014 7.67085C13.6103 7.93372 13.6663 8.21546 13.6663 8.5V11.5C13.6663 11.7845 13.6103 12.0663 13.5014 12.3291C13.3925 12.592 13.2329 12.8309 13.0317 13.0321C12.8305 13.2333 12.5917 13.3928 12.3288 13.5017C12.066 13.6106 11.7842 13.6667 11.4997 13.6667H5.83301C5.54848 13.6667 5.26673 13.6106 5.00386 13.5017C4.74099 13.3928 4.50214 13.2333 4.30094 13.0321C4.09975 12.8309 3.94015 12.592 3.83127 12.3291C3.72238 12.0663 3.66634 11.7845 3.66634 11.5V8.5ZM5.83301 7.33333C5.49701 7.33333 5.19367 7.47533 4.98101 7.70333L8.66634 10.072L12.3517 7.70333C12.2427 7.58644 12.1108 7.49326 11.9642 7.4296C11.8176 7.36595 11.6595 7.33317 11.4997 7.33333H5.83301ZM4.66634 11.5C4.66634 12.144 5.18901 12.6667 5.83301 12.6667H11.4997C11.8091 12.6667 12.1058 12.5437 12.3246 12.325C12.5434 12.1062 12.6663 11.8094 12.6663 11.5V8.68933L8.93701 11.0873C8.8563 11.1393 8.76233 11.1669 8.66634 11.1669C8.57035 11.1669 8.47639 11.1393 8.39567 11.0873L4.66634 8.68933V11.5Z" fill="#4D4D4D"/>
</svg>
