<svg width="12" height="12" viewBox="0 0 12 12" fill="none" xmlns="http://www.w3.org/2000/svg">
<path d="M0.166992 2.06249C0.166992 1.55968 0.366731 1.07747 0.722269 0.721933C1.07781 0.366395 1.56002 0.166656 2.06283 0.166656H8.18783C8.69063 0.166656 9.17285 0.366395 9.52838 0.721933C9.88392 1.07747 10.0837 1.55968 10.0837 2.06249V4.83741C10.0351 4.83464 9.98647 4.83328 9.93783 4.83332H9.20866V2.06249C9.20866 1.79175 9.10111 1.5321 8.90966 1.34065C8.71822 1.14921 8.45857 1.04166 8.18783 1.04166H2.06283C1.79208 1.04166 1.53243 1.14921 1.34099 1.34065C1.14954 1.5321 1.04199 1.79175 1.04199 2.06249V8.77082C1.04199 9.33432 1.49933 9.79166 2.06283 9.79166H2.50033V9.93749C2.50033 10.1912 2.53824 10.4362 2.60941 10.6667H2.06283C1.56002 10.6667 1.07781 10.4669 0.722269 10.1114C0.366731 9.75584 0.166992 9.27363 0.166992 8.77082V2.06249ZM2.93783 1.91666C2.82179 1.91666 2.71051 1.96275 2.62847 2.0448C2.54642 2.12684 2.50033 2.23812 2.50033 2.35416C2.50033 2.47019 2.54642 2.58147 2.62847 2.66352C2.71051 2.74556 2.82179 2.79166 2.93783 2.79166H7.31283C7.42886 2.79166 7.54014 2.74556 7.62219 2.66352C7.70423 2.58147 7.75033 2.47019 7.75033 2.35416C7.75033 2.23812 7.70423 2.12684 7.62219 2.0448C7.54014 1.96275 7.42886 1.91666 7.31283 1.91666H2.93783ZM3.66699 3.81249C3.66699 3.69646 3.71309 3.58518 3.79513 3.50313C3.87718 3.42108 3.98846 3.37499 4.10449 3.37499H7.31283C7.42886 3.37499 7.54014 3.42108 7.62219 3.50313C7.70423 3.58518 7.75033 3.69646 7.75033 3.81249C7.75033 3.92852 7.70423 4.0398 7.62219 4.12185C7.54014 4.2039 7.42886 4.24999 7.31283 4.24999H4.10449C3.98846 4.24999 3.87718 4.2039 3.79513 4.12185C3.71309 4.0398 3.66699 3.92852 3.66699 3.81249ZM3.08366 7.31249C3.08366 6.80968 3.2834 6.32747 3.63894 5.97193C3.99447 5.6164 4.47669 5.41666 4.97949 5.41666H9.93783C10.1868 5.41666 10.4333 5.46569 10.6633 5.56097C10.8933 5.65624 11.1023 5.79589 11.2784 5.97193C11.4544 6.14798 11.5941 6.35697 11.6893 6.58699C11.7846 6.817 11.8337 7.06353 11.8337 7.31249V9.93749C11.8337 10.1865 11.7846 10.433 11.6893 10.663C11.5941 10.893 11.4544 11.102 11.2784 11.278C11.1023 11.4541 10.8933 11.5937 10.6633 11.689C10.4333 11.7843 10.1868 11.8333 9.93783 11.8333H4.97949C4.73053 11.8333 4.484 11.7843 4.25399 11.689C4.02398 11.5937 3.81498 11.4541 3.63894 11.278C3.46289 11.102 3.32325 10.893 3.22797 10.663C3.1327 10.433 3.08366 10.1865 3.08366 9.93749V7.31249ZM4.97949 6.29166C4.68549 6.29166 4.42008 6.41591 4.23399 6.61541L7.45866 8.68799L10.6833 6.61541C10.588 6.51313 10.4726 6.4316 10.3443 6.3759C10.216 6.3202 10.0777 6.29152 9.93783 6.29166H4.97949ZM3.95866 9.93749C3.95866 10.501 4.41599 10.9583 4.97949 10.9583H9.93783C10.2086 10.9583 10.4682 10.8508 10.6597 10.6593C10.8511 10.4679 10.9587 10.2082 10.9587 9.93749V7.47816L7.69549 9.57641C7.62487 9.62188 7.54265 9.64605 7.45866 9.64605C7.37467 9.64605 7.29245 9.62188 7.22183 9.57641L3.95866 7.47816V9.93749Z" fill="#080808"/>
</svg>
