<svg width="12" height="12" viewBox="0 0 12 12" fill="none" xmlns="http://www.w3.org/2000/svg">
<path d="M1.91667 11.25H8.91667C9.53551 11.25 10.129 11.0042 10.5666 10.5666C11.0042 10.129 11.25 9.5355 11.25 8.91667V1.91667C11.25 1.60725 11.1271 1.3105 10.9083 1.09171C10.6895 0.872916 10.3928 0.75 10.0833 0.75H4.25C3.94058 0.75 3.64383 0.872916 3.42504 1.09171C3.20625 1.3105 3.08333 1.60725 3.08333 1.91667V9.5C3.08333 10.4666 2.88325 11.25 1.91667 11.25Z" stroke="#080808" stroke-linecap="round" stroke-linejoin="round"/>
<path d="M0.75 4.83333C0.75 4.52391 0.872916 4.22717 1.09171 4.00838C1.3105 3.78958 1.60725 3.66667 1.91667 3.66667H3.08333V9.79167C3.08333 10.5967 2.72167 11.25 1.91667 11.25C1.11167 11.25 0.75 10.5967 0.75 9.79167V4.83333Z" stroke="#080808" stroke-linecap="round" stroke-linejoin="round"/>
<path d="M6 4.25C6.32217 4.25 6.58333 3.98883 6.58333 3.66667C6.58333 3.3445 6.32217 3.08333 6 3.08333C5.67783 3.08333 5.41667 3.3445 5.41667 3.66667C5.41667 3.98883 5.67783 4.25 6 4.25Z" stroke="#080808" stroke-linecap="round"/>
<path d="M5.41667 8.91667H7.16667M5.41667 7.16667H8.91667H5.41667Z" stroke="#080808" stroke-linecap="round"/>
</svg>
