<svg width="16" height="16" viewBox="0 0 16 16" fill="none" xmlns="http://www.w3.org/2000/svg">
<path d="M3.33301 14H11.333C12.0403 14 12.7185 13.719 13.2186 13.219C13.7187 12.7189 13.9997 12.0406 13.9997 11.3333V3.33333C13.9997 2.97971 13.8592 2.64057 13.6092 2.39052C13.3591 2.14048 13.02 2 12.6663 2H5.99967C5.64605 2 5.30691 2.14048 5.05687 2.39052C4.80682 2.64057 4.66634 2.97971 4.66634 3.33333V12C4.66634 13.1047 4.43767 14 3.33301 14Z" stroke="#4D4D4D" stroke-linecap="round" stroke-linejoin="round"/>
<path d="M2 6.66666C2 6.31304 2.14048 5.9739 2.39052 5.72385C2.64057 5.4738 2.97971 5.33333 3.33333 5.33333H4.66667V12.3333C4.66667 13.2533 4.25333 14 3.33333 14C2.41333 14 2 13.2533 2 12.3333V6.66666Z" stroke="#4D4D4D" stroke-linecap="round" stroke-linejoin="round"/>
<path d="M7.99967 6.00001C8.36786 6.00001 8.66634 5.70153 8.66634 5.33334C8.66634 4.96515 8.36786 4.66667 7.99967 4.66667C7.63148 4.66667 7.33301 4.96515 7.33301 5.33334C7.33301 5.70153 7.63148 6.00001 7.99967 6.00001Z" stroke="#4D4D4D" stroke-linecap="round"/>
<path d="M7.33301 11.3333H9.33301M7.33301 9.33333H11.333H7.33301Z" stroke="#4D4D4D" stroke-linecap="round"/>
</svg>
