<svg width="14" height="12" viewBox="0 0 14 12" fill="none" xmlns="http://www.w3.org/2000/svg">
<path d="M9.91732 1.91666H11.6673L10.7923 3.08332L9.91732 1.91666ZM1.75065 0.166656H12.2507C12.5601 0.166656 12.8568 0.289573 13.0756 0.508365C13.2944 0.727158 13.4173 1.0239 13.4173 1.33332V3.66666C13.4173 4.31416 12.8982 4.83332 12.2507 4.83332H9.33398V10.6667C9.33398 11.3142 8.81482 11.8333 8.16732 11.8333H1.75065C1.44123 11.8333 1.14449 11.7104 0.925693 11.4916C0.706901 11.2728 0.583984 10.9761 0.583984 10.6667V1.33332C0.583984 0.691656 1.10898 0.166656 1.75065 0.166656ZM1.75065 1.33332V3.66666H8.16732V1.33332H1.75065ZM12.2507 3.66666V1.33332H9.33398V3.66666H12.2507ZM1.75065 10.6667H8.16732V4.83332H1.75065V10.6667ZM2.91732 5.99999H7.00065V7.16666H2.91732V5.99999ZM2.91732 8.33332H7.00065V9.49999H2.91732V8.33332Z" fill="#080808"/>
</svg>
