<svg width="13" height="12" viewBox="0 0 13 12" fill="none" xmlns="http://www.w3.org/2000/svg">
<path d="M2.06283 0.333344C1.56002 0.333344 1.07781 0.533082 0.722269 0.88862C0.366731 1.24416 0.166992 1.72637 0.166992 2.22918V6.60418C0.166992 7.10698 0.366731 7.5892 0.722269 7.94473C1.07781 8.30027 1.56002 8.50001 2.06283 8.50001H5.41699V7.62501H2.06283C1.79208 7.62501 1.53243 7.51746 1.34099 7.32601C1.14954 7.13457 1.04199 6.87492 1.04199 6.60418V3.25001H10.9587V4.73751C11.221 4.87139 11.4414 5.07491 11.5958 5.32577C11.7501 5.57663 11.8324 5.86514 11.8337 6.15968V2.22918C11.8337 1.98021 11.7846 1.73369 11.6893 1.50367C11.5941 1.27366 11.4544 1.06466 11.2784 0.88862C11.1023 0.712576 10.8933 0.57293 10.6633 0.477655C10.4333 0.382381 10.1868 0.333344 9.93783 0.333344H2.06283ZM10.9587 2.37501H1.04199V2.22918C1.04199 1.66568 1.49933 1.20834 2.06283 1.20834H9.93783C10.5013 1.20834 10.9587 1.66568 10.9587 2.22918V2.37501ZM7.16699 6.75001H6.87533C6.64326 6.75001 6.4207 6.8422 6.25661 7.00629C6.09251 7.17039 6.00033 7.39294 6.00033 7.62501V8.50001H7.45866V8.35418C7.45866 8.23814 7.50475 8.12686 7.5868 8.04482C7.66885 7.96277 7.78013 7.91668 7.89616 7.91668C8.01219 7.91668 8.12347 7.96277 8.20552 8.04482C8.28756 8.12686 8.33366 8.23814 8.33366 8.35418V8.50001H10.0837V8.35418C10.0837 8.23814 10.1298 8.12686 10.2118 8.04482C10.2938 7.96277 10.4051 7.91668 10.5212 7.91668C10.6372 7.91668 10.7485 7.96277 10.8305 8.04482C10.9126 8.12686 10.9587 8.23814 10.9587 8.35418V8.50001H12.417V7.62501C12.417 7.39294 12.3248 7.17039 12.1607 7.00629C11.9966 6.8422 11.7741 6.75001 11.542 6.75001H11.2503V6.16668C11.2503 5.89593 11.1428 5.63628 10.9513 5.44484C10.7599 5.25339 10.5002 5.14584 10.2295 5.14584H8.18783C7.91708 5.14584 7.65743 5.25339 7.46599 5.44484C7.27454 5.63628 7.16699 5.89593 7.16699 6.16668V6.75001ZM8.04199 6.16668C8.04199 6.128 8.05736 6.09091 8.08471 6.06356C8.11205 6.03621 8.14915 6.02084 8.18783 6.02084H10.2295C10.2682 6.02084 10.3053 6.03621 10.3326 6.06356C10.36 6.09091 10.3753 6.128 10.3753 6.16668V6.75001H8.04199V6.16668ZM6.00033 10.5417V9.37501H7.45866V9.81251C7.45866 9.92854 7.50475 10.0398 7.5868 10.1219C7.66885 10.2039 7.78013 10.25 7.89616 10.25C8.01219 10.25 8.12347 10.2039 8.20552 10.1219C8.28756 10.0398 8.33366 9.92854 8.33366 9.81251V9.37501H10.0837V9.81251C10.0837 9.92854 10.1298 10.0398 10.2118 10.1219C10.2938 10.2039 10.4051 10.25 10.5212 10.25C10.6372 10.25 10.7485 10.2039 10.8305 10.1219C10.9126 10.0398 10.9587 9.92854 10.9587 9.81251V9.37501H12.417V10.5417C12.417 10.7737 12.3248 10.9963 12.1607 11.1604C11.9966 11.3245 11.7741 11.4167 11.542 11.4167H6.87533C6.64326 11.4167 6.4207 11.3245 6.25661 11.1604C6.09251 10.9963 6.00033 10.7737 6.00033 10.5417Z" fill="#080808"/>
</svg>
