<svg width="13" height="12" viewBox="0 0 13 12" fill="none" xmlns="http://www.w3.org/2000/svg">
<path d="M2.06283 0.333252C1.56002 0.333252 1.07781 0.532991 0.722269 0.888529C0.366731 1.24407 0.166992 1.72628 0.166992 2.22908V6.60408C0.166992 7.10689 0.366731 7.5891 0.722269 7.94464C1.07781 8.30018 1.56002 8.49992 2.06283 8.49992H5.41699V7.62492H2.06283C1.79208 7.62492 1.53243 7.51737 1.34099 7.32592C1.14954 7.13448 1.04199 6.87483 1.04199 6.60408V3.24992H10.9587V4.73742C11.221 4.8713 11.4414 5.07482 11.5958 5.32568C11.7501 5.57654 11.8324 5.86505 11.8337 6.15958V2.22908C11.8337 1.98012 11.7846 1.73359 11.6893 1.50358C11.5941 1.27357 11.4544 1.06457 11.2784 0.888529C11.1023 0.712484 10.8933 0.572838 10.6633 0.477564C10.4333 0.382289 10.1868 0.333252 9.93783 0.333252H2.06283ZM10.9587 2.37492H1.04199V2.22908C1.04199 1.66559 1.49933 1.20825 2.06283 1.20825H9.93783C10.5013 1.20825 10.9587 1.66559 10.9587 2.22908V2.37492ZM7.16699 6.74992H6.87533C6.64326 6.74992 6.4207 6.8421 6.25661 7.0062C6.09251 7.17029 6.00033 7.39285 6.00033 7.62492V8.49992H7.45866V8.35408C7.45866 8.23805 7.50475 8.12677 7.5868 8.04472C7.66885 7.96268 7.78013 7.91658 7.89616 7.91658C8.01219 7.91658 8.12347 7.96268 8.20552 8.04472C8.28756 8.12677 8.33366 8.23805 8.33366 8.35408V8.49992H10.0837V8.35408C10.0837 8.23805 10.1298 8.12677 10.2118 8.04472C10.2938 7.96268 10.4051 7.91658 10.5212 7.91658C10.6372 7.91658 10.7485 7.96268 10.8305 8.04472C10.9126 8.12677 10.9587 8.23805 10.9587 8.35408V8.49992H12.417V7.62492C12.417 7.39285 12.3248 7.17029 12.1607 7.0062C11.9966 6.8421 11.7741 6.74992 11.542 6.74992H11.2503V6.16658C11.2503 5.89584 11.1428 5.63619 10.9513 5.44475C10.7599 5.2533 10.5002 5.14575 10.2295 5.14575H8.18783C7.91708 5.14575 7.65743 5.2533 7.46599 5.44475C7.27454 5.63619 7.16699 5.89584 7.16699 6.16658V6.74992ZM8.04199 6.16658C8.04199 6.12791 8.05736 6.09081 8.08471 6.06346C8.11205 6.03612 8.14915 6.02075 8.18783 6.02075H10.2295C10.2682 6.02075 10.3053 6.03612 10.3326 6.06346C10.36 6.09081 10.3753 6.12791 10.3753 6.16658V6.74992H8.04199V6.16658ZM6.00033 10.5416V9.37492H7.45866V9.81242C7.45866 9.92845 7.50475 10.0397 7.5868 10.1218C7.66885 10.2038 7.78013 10.2499 7.89616 10.2499C8.01219 10.2499 8.12347 10.2038 8.20552 10.1218C8.28756 10.0397 8.33366 9.92845 8.33366 9.81242V9.37492H10.0837V9.81242C10.0837 9.92845 10.1298 10.0397 10.2118 10.1218C10.2938 10.2038 10.4051 10.2499 10.5212 10.2499C10.6372 10.2499 10.7485 10.2038 10.8305 10.1218C10.9126 10.0397 10.9587 9.92845 10.9587 9.81242V9.37492H12.417V10.5416C12.417 10.7736 12.3248 10.9962 12.1607 11.1603C11.9966 11.3244 11.7741 11.4166 11.542 11.4166H6.87533C6.64326 11.4166 6.4207 11.3244 6.25661 11.1603C6.09251 10.9962 6.00033 10.7736 6.00033 10.5416Z" fill="#4D4D4D"/>
</svg>
