<svg width="12" height="12" viewBox="0 0 12 12" fill="none" xmlns="http://www.w3.org/2000/svg">
<g clip-path="url(#clip0_1232_17353)">
<path d="M10.2396 1.75603C9.68293 1.19815 9.02153 0.755738 8.29338 0.454218C7.56524 0.152698 6.7847 -0.00199374 5.99659 -0.000971529C2.68259 -0.000971529 -0.00390625 2.68553 -0.00390625 5.99953C-0.00390625 7.65653 0.668094 9.15703 1.75409 10.243C2.31076 10.8009 2.97216 11.2433 3.7003 11.5448C4.42845 11.8464 5.20899 12.0011 5.99709 12C9.31109 12 11.9976 9.31353 11.9976 5.99953C11.9976 4.34253 11.3256 2.84203 10.2396 1.75603V1.75603ZM9.46859 9.46953C9.01321 9.92609 8.47209 10.2882 7.87634 10.5349C7.28058 10.7817 6.64194 10.9083 5.99709 10.9075C3.28559 10.9075 1.08759 8.70953 1.08759 5.99803C1.08679 5.35319 1.21341 4.71454 1.46019 4.11879C1.70697 3.52303 2.06904 2.98192 2.52559 2.52653C2.98087 2.06997 3.5219 1.70789 4.11757 1.4611C4.71325 1.21432 5.35182 1.0877 5.99659 1.08853C8.70759 1.08853 10.9056 3.28653 10.9056 5.99753C10.9064 6.6423 10.7798 7.28089 10.5331 7.87657C10.2863 8.47224 9.92418 9.01327 9.46759 9.46853L9.46859 9.46953Z" fill="#A9A9A9"/>
<path d="M6.76877 6L8.69627 4.0725C8.79135 3.96886 8.84273 3.83251 8.83968 3.6919C8.83663 3.55128 8.77939 3.41729 8.67991 3.31787C8.58043 3.21845 8.44639 3.1613 8.30578 3.15834C8.16517 3.15538 8.02884 3.20685 7.92527 3.302L7.92577 3.3015L5.99827 5.229L4.07077 3.3015C3.96713 3.20642 3.83078 3.15504 3.69017 3.15809C3.54956 3.16114 3.41556 3.21838 3.31614 3.31786C3.21673 3.41734 3.15957 3.55138 3.15662 3.69199C3.15366 3.8326 3.20512 3.96892 3.30027 4.0725L3.29977 4.072L5.22727 5.9995L3.29977 7.927C3.24554 7.97675 3.20194 8.03696 3.17159 8.10401C3.14124 8.17106 3.12477 8.24356 3.12318 8.31713C3.12158 8.39071 3.13489 8.46386 3.1623 8.53216C3.18972 8.60046 3.23067 8.6625 3.2827 8.71456C3.33472 8.76662 3.39674 8.80761 3.46502 8.83507C3.5333 8.86253 3.60644 8.87589 3.68002 8.87434C3.7536 8.87279 3.8261 8.85637 3.89317 8.82607C3.96024 8.79576 4.02048 8.7522 4.07027 8.698L4.07077 8.6975L5.99827 6.77L7.92577 8.6975C7.97552 8.75173 8.03574 8.79533 8.10278 8.82568C8.16983 8.85603 8.24233 8.8725 8.31591 8.87409C8.38949 8.87569 8.46263 8.86238 8.53093 8.83496C8.59923 8.80755 8.66128 8.7666 8.71333 8.71457C8.76539 8.66255 8.80638 8.60053 8.83384 8.53225C8.8613 8.46396 8.87466 8.39083 8.87311 8.31725C8.87156 8.24367 8.85514 8.17116 8.82484 8.10409C8.79453 8.03703 8.75097 7.97679 8.69677 7.927L8.69627 7.9265L6.76877 6Z" fill="#A9A9A9"/>
</g>
<defs>
<clipPath id="clip0_1232_17353">
<rect width="12" height="12" fill="white"/>
</clipPath>
</defs>
</svg>
