<svg width="14" height="14" viewBox="0 0 14 14" fill="none" xmlns="http://www.w3.org/2000/svg">
<path d="M9.90901 2.5404L11.4595 4.09011L9.90901 2.5404ZM10.906 1.17515L6.71368 5.36751C6.49706 5.58382 6.34933 5.85942 6.2891 6.15957L5.90186 8.09799L7.84028 7.71002C8.14041 7.64999 8.41566 7.50285 8.63234 7.28617L12.8247 3.09381C12.9507 2.96783 13.0506 2.81827 13.1188 2.65367C13.187 2.48907 13.2221 2.31265 13.2221 2.13448C13.2221 1.95632 13.187 1.7799 13.1188 1.6153C13.0506 1.4507 12.9507 1.30113 12.8247 1.17515C12.6987 1.04917 12.5492 0.949239 12.3846 0.881059C12.22 0.812878 12.0435 0.777786 11.8654 0.777786C11.6872 0.777786 11.5108 0.812878 11.3462 0.881059C11.1816 0.949239 11.032 1.04917 10.906 1.17515V1.17515Z" stroke="#4D4D4D" stroke-width="1.33333" stroke-linecap="round" stroke-linejoin="round"/>
<path d="M11.7583 9.56207V11.7582C11.7583 12.1465 11.6041 12.5189 11.3295 12.7934C11.055 13.068 10.6826 13.2222 10.2943 13.2222H2.2419C1.8536 13.2222 1.48121 13.068 1.20665 12.7934C0.932081 12.5189 0.777832 12.1465 0.777832 11.7582V3.7058C0.777832 3.3175 0.932081 2.94511 1.20665 2.67055C1.48121 2.39598 1.8536 2.24173 2.2419 2.24173H4.438" stroke="#4D4D4D" stroke-width="1.33333" stroke-linecap="round" stroke-linejoin="round"/>
</svg>
