<svg width="24" height="24" viewBox="0 0 24 24" fill="none" xmlns="http://www.w3.org/2000/svg">
<g clip-path="url(#clip0_1775_15577)">
<path d="M20.4792 3.51206C19.3659 2.39629 18.0431 1.51148 16.5868 0.908436C15.1305 0.305396 13.5694 -0.00398749 11.9932 -0.00194306C5.36519 -0.00194306 -0.0078125 5.37106 -0.0078125 11.9991C-0.0078125 15.3131 1.33619 18.3141 3.50819 20.4861C4.62152 21.6018 5.94432 22.4866 7.40061 23.0897C8.8569 23.6927 10.418 24.0021 11.9942 24.0001C18.6222 24.0001 23.9952 18.6271 23.9952 11.9991C23.9952 8.68506 22.6512 5.68406 20.4792 3.51206ZM18.9372 18.9391C18.0264 19.8522 16.9442 20.5763 15.7527 21.0699C14.5612 21.5634 13.2839 21.8167 11.9942 21.8151C6.57119 21.8151 2.17519 17.4191 2.17519 11.9961C2.17357 10.7064 2.42682 9.42908 2.92038 8.23757C3.41393 7.04607 4.13807 5.96383 5.05119 5.05306C5.96175 4.13993 7.0438 3.41577 8.23515 2.92221C9.4265 2.42864 10.7036 2.17541 11.9932 2.17706C17.4152 2.17706 21.8112 6.57306 21.8112 11.9951C21.8129 13.2846 21.5597 14.5618 21.0661 15.7531C20.5725 16.9445 19.8484 18.0265 18.9352 18.9371L18.9372 18.9391Z" fill="#080808"/>
<path d="M13.5375 12L17.3925 8.14499C17.5827 7.93772 17.6855 7.66501 17.6794 7.38379C17.6733 7.10257 17.5588 6.83457 17.3598 6.63574C17.1609 6.4369 16.8928 6.3226 16.6116 6.31668C16.3303 6.31077 16.0577 6.4137 15.8505 6.60399L15.8515 6.60299L11.9965 10.458L8.14154 6.60299C7.93427 6.41283 7.66156 6.31008 7.38034 6.31617C7.09912 6.32227 6.83112 6.43675 6.63229 6.63572C6.43345 6.83468 6.31915 7.10275 6.31323 7.38398C6.30732 7.6652 6.41025 7.93784 6.60054 8.14499L6.59954 8.14399L10.4545 11.999L6.59954 15.854C6.49108 15.9535 6.40387 16.0739 6.34318 16.208C6.28248 16.3421 6.24954 16.4871 6.24635 16.6343C6.24316 16.7814 6.26978 16.9277 6.32461 17.0643C6.37944 17.2009 6.46134 17.325 6.56539 17.4291C6.66944 17.5332 6.79348 17.6152 6.93004 17.6701C7.06661 17.7251 7.21287 17.7518 7.36004 17.7487C7.5072 17.7456 7.65221 17.7127 7.78635 17.6521C7.92048 17.5915 8.04096 17.5044 8.14054 17.396L8.14154 17.395L11.9965 13.54L15.8515 17.395C15.951 17.5035 16.0715 17.5907 16.2056 17.6514C16.3397 17.7121 16.4847 17.745 16.6318 17.7482C16.779 17.7514 16.9253 17.7248 17.0619 17.6699C17.1985 17.6151 17.3226 17.5332 17.4267 17.4291C17.5308 17.3251 17.6128 17.2011 17.6677 17.0645C17.7226 16.9279 17.7493 16.7817 17.7462 16.6345C17.7431 16.4873 17.7103 16.3423 17.6497 16.2082C17.5891 16.0741 17.5019 15.9536 17.3935 15.854L17.3925 15.853L13.5375 12Z" fill="#080808"/>
</g>
<defs>
<clipPath id="clip0_1775_15577">
<rect width="24" height="24" fill="white"/>
</clipPath>
</defs>
</svg>
