<svg width="14" height="14" viewBox="0 0 14 14" fill="none" xmlns="http://www.w3.org/2000/svg">
<path d="M6.90289 12.4167C5.45893 12.4167 4.07411 11.8431 3.05308 10.822C2.03205 9.80099 1.45844 8.41618 1.45844 6.97222C1.45844 5.52827 2.03205 4.14345 3.05308 3.12242C4.07411 2.10139 5.45893 1.52778 6.90289 1.52778C8.34684 1.52778 9.73166 2.10139 10.7527 3.12242C11.7737 4.14345 12.3473 5.52827 12.3473 6.97222C12.3473 8.41618 11.7737 9.80099 10.7527 10.822C9.73166 11.8431 8.34684 12.4167 6.90289 12.4167ZM6.90289 13.1944C8.55312 13.1944 10.1358 12.5389 11.3027 11.372C12.4696 10.2051 13.1251 8.62246 13.1251 6.97222C13.1251 5.32199 12.4696 3.73934 11.3027 2.57245C10.1358 1.40555 8.55312 0.75 6.90289 0.75C5.25265 0.75 3.67 1.40555 2.50311 2.57245C1.33622 3.73934 0.680664 5.32199 0.680664 6.97222C0.680664 8.62246 1.33622 10.2051 2.50311 11.372C3.67 12.5389 5.25265 13.1944 6.90289 13.1944V13.1944Z" fill="#4D4D4D"/>
<path d="M7.62629 5.87401L5.84518 6.09723L5.7814 6.39278L6.1314 6.45734C6.36007 6.51178 6.40518 6.59423 6.3554 6.82212L5.7814 9.51945C5.63051 10.2171 5.86307 10.5453 6.40985 10.5453C6.83374 10.5453 7.32607 10.3493 7.54929 10.0802L7.61773 9.75667C7.46218 9.89356 7.23507 9.94801 7.08418 9.94801C6.87029 9.94801 6.79251 9.7979 6.84773 9.53345L7.62629 5.87401ZM7.68073 4.25001C7.68073 4.45629 7.59879 4.65412 7.45293 4.79998C7.30707 4.94584 7.10924 5.02778 6.90296 5.02778C6.69668 5.02778 6.49885 4.94584 6.35299 4.79998C6.20712 4.65412 6.12518 4.45629 6.12518 4.25001C6.12518 4.04373 6.20712 3.8459 6.35299 3.70003C6.49885 3.55417 6.69668 3.47223 6.90296 3.47223C7.10924 3.47223 7.30707 3.55417 7.45293 3.70003C7.59879 3.8459 7.68073 4.04373 7.68073 4.25001Z" fill="#4D4D4D"/>
</svg>
