<svg width="14" height="15" viewBox="0 0 14 15" fill="none" xmlns="http://www.w3.org/2000/svg">
<path d="M9.90901 2.76584L11.4595 4.31556L9.90901 2.76584ZM10.906 1.4006L6.71368 5.59296C6.49706 5.80927 6.34933 6.08487 6.2891 6.38502L5.90186 8.32344L7.84028 7.93547C8.14041 7.87544 8.41566 7.7283 8.63234 7.51162L12.8247 3.31926C12.9507 3.19328 13.0506 3.04372 13.1188 2.87912C13.187 2.71452 13.2221 2.5381 13.2221 2.35993C13.2221 2.18177 13.187 2.00535 13.1188 1.84075C13.0506 1.67614 12.9507 1.52658 12.8247 1.4006C12.6987 1.27462 12.5492 1.17469 12.3846 1.10651C12.22 1.03833 12.0435 1.00323 11.8654 1.00323C11.6872 1.00323 11.5108 1.03833 11.3462 1.10651C11.1816 1.17469 11.032 1.27462 10.906 1.4006V1.4006Z" stroke="#080808" stroke-width="1.33333" stroke-linecap="round" stroke-linejoin="round"/>
<path d="M11.7583 9.78753V11.9836C11.7583 12.3719 11.6041 12.7443 11.3295 13.0189C11.055 13.2934 10.6826 13.4477 10.2943 13.4477H2.2419C1.8536 13.4477 1.48121 13.2934 1.20665 13.0189C0.932081 12.7443 0.777832 12.3719 0.777832 11.9836V3.93126C0.777832 3.54297 0.932081 3.17057 1.20665 2.89601C1.48121 2.62144 1.8536 2.46719 2.2419 2.46719H4.438" stroke="#080808" stroke-width="1.33333" stroke-linecap="round" stroke-linejoin="round"/>
</svg>
