<svg width="12" height="12" viewBox="0 0 12 12" fill="none" xmlns="http://www.w3.org/2000/svg">
<path d="M10.2294 1.75869C9.39161 0.919202 8.32404 0.347383 7.16171 0.115567C5.99938 -0.11625 4.7945 0.00235001 3.69949 0.456365C2.60448 0.91038 1.66852 1.67941 1.01 2.66619C0.351487 3.65296 0 4.81315 0 6C0 7.18685 0.351487 8.34704 1.01 9.33381C1.66852 10.3206 2.60448 11.0896 3.69949 11.5436C4.7945 11.9977 5.99938 12.1163 7.16171 11.8844C8.32404 11.6526 9.39161 11.0808 10.2294 10.2413C10.7902 9.68697 11.2356 9.0266 11.5395 8.29852C11.8435 7.57044 12 6.78915 12 6C12 5.21085 11.8435 4.42956 11.5395 3.70148C11.2356 2.9734 10.7902 2.31303 10.2294 1.75869ZM9.46972 9.48057C8.78363 10.1653 7.91033 10.631 6.9601 10.819C6.00987 11.007 5.02532 10.9088 4.13077 10.5368C3.23623 10.1649 2.4718 9.53578 1.93403 8.72904C1.39625 7.9223 1.10925 6.97407 1.10925 6.00409C1.10925 5.03411 1.39625 4.08588 1.93403 3.27914C2.4718 2.47239 3.23623 1.84332 4.13077 1.47135C5.02532 1.09937 6.00987 1.00118 6.9601 1.18918C7.91033 1.37717 8.78363 1.84292 9.46972 2.52761C9.92663 2.98358 10.2892 3.52538 10.5365 4.12195C10.7839 4.71853 10.9112 5.35813 10.9112 6.00409C10.9112 6.65005 10.7839 7.28965 10.5365 7.88623C10.2892 8.4828 9.92663 9.0246 9.46972 9.48057ZM5.99411 3.95501C5.72479 3.95453 5.45803 4.0074 5.2092 4.11059C4.96037 4.21377 4.73438 4.36523 4.54424 4.55624C4.35284 4.74635 4.20092 4.97252 4.09724 5.22172C3.99357 5.47093 3.94019 5.73822 3.94019 6.00818C3.94019 6.27814 3.99357 6.54543 4.09724 6.79463C4.20092 7.04384 4.35284 7.27001 4.54424 7.46012C4.78281 7.69437 5.07513 7.86641 5.39557 7.96117C5.716 8.05592 6.05476 8.0705 6.38213 8.00361C6.7095 7.93672 7.01548 7.79041 7.27323 7.57751C7.53098 7.36461 7.73264 7.09164 7.8605 6.78252C7.98837 6.4734 8.03854 6.13758 8.00662 5.80452C7.9747 5.47146 7.86166 5.15134 7.67742 4.87221C7.49317 4.59309 7.24336 4.36351 6.94987 4.2036C6.65639 4.04368 6.32821 3.95832 5.99411 3.95501ZM6.68433 6.69939C6.54782 6.83609 6.37389 6.92919 6.18455 6.9669C5.9952 7.00462 5.79894 6.98526 5.62058 6.91127C5.44222 6.83729 5.28977 6.712 5.18251 6.55125C5.07526 6.3905 5.01801 6.20151 5.01801 6.00818C5.01801 5.81485 5.07526 5.62586 5.18251 5.46511C5.28977 5.30436 5.44222 5.17907 5.62058 5.10508C5.79894 5.0311 5.9952 5.01174 6.18455 5.04946C6.37389 5.08717 6.54782 5.18027 6.68433 5.31697C6.8659 5.49943 6.96784 5.74651 6.96784 6.00409C6.96784 6.26167 6.8659 6.50875 6.68433 6.69121V6.69939ZM7.35822 4.02045C7.42184 4.06824 7.49923 4.09407 7.57876 4.09407C7.63318 4.09377 7.68682 4.0811 7.73564 4.05701C7.78446 4.03292 7.82717 3.99804 7.86057 3.95501L8.88977 2.62986C8.93816 2.55442 8.95668 2.46361 8.94171 2.37521C8.92675 2.28681 8.87938 2.20718 8.80887 2.15193C8.73836 2.09667 8.6498 2.06975 8.56051 2.07645C8.47123 2.08315 8.38766 2.12298 8.32616 2.18814L7.29696 3.51738C7.24138 3.59183 7.21671 3.68493 7.22813 3.77717C7.23955 3.86942 7.28617 3.95367 7.35822 4.01227V4.02045ZM9.86997 3.16974C9.81123 3.09524 9.72549 3.047 9.63141 3.03551C9.53732 3.02402 9.44251 3.05021 9.36762 3.10839L8.03619 4.13088C7.96117 4.1891 7.9122 4.27468 7.89996 4.36892C7.88772 4.46317 7.9132 4.55844 7.97084 4.63395C8.00526 4.67685 8.04876 4.71158 8.09819 4.73562C8.14763 4.75967 8.20178 4.77244 8.25673 4.77301C8.33566 4.77281 8.41211 4.74537 8.47319 4.6953L9.80054 3.66462C9.83844 3.63643 9.87036 3.60096 9.89442 3.56027C9.91847 3.51959 9.93419 3.47451 9.94066 3.42768C9.94712 3.38084 9.9442 3.33318 9.93207 3.28749C9.91993 3.2418 9.89882 3.19899 9.86997 3.16156V3.16974ZM4.63 7.98773C4.55461 7.93001 4.45947 7.90449 4.36536 7.91675C4.27125 7.92901 4.18579 7.97805 4.12765 8.05317L3.09845 9.37832C3.04036 9.45332 3.0142 9.54826 3.02567 9.64248C3.03715 9.7367 3.08532 9.82257 3.15971 9.88139C3.22333 9.92918 3.30072 9.95501 3.38025 9.95501C3.43439 9.9555 3.48792 9.94359 3.53676 9.9202C3.5856 9.89681 3.62846 9.86255 3.66206 9.82004L4.69127 8.4908C4.74936 8.4158 4.77551 8.32085 4.76404 8.22663C4.75257 8.13242 4.70439 8.04655 4.63 7.98773ZM4.00921 7.36605C3.95048 7.29156 3.86473 7.24332 3.77065 7.23183C3.67656 7.22034 3.58175 7.24653 3.50686 7.3047L2.17951 8.33538C2.12116 8.38163 2.07858 8.44488 2.05766 8.5164C2.03673 8.58792 2.0385 8.66418 2.0627 8.73466C2.08691 8.80513 2.13236 8.86634 2.19279 8.90984C2.25322 8.95334 2.32564 8.97698 2.40006 8.9775C2.48033 8.97792 2.55827 8.95045 2.6206 8.89979L3.95203 7.86912C4.0258 7.80971 4.07318 7.72355 4.08389 7.62936C4.0946 7.53516 4.06776 7.44055 4.00921 7.36605Z" fill="#4D4D4D"/>
</svg>
