<svg width="16" height="14" viewBox="0 0 16 14" fill="none" xmlns="http://www.w3.org/2000/svg">
<path d="M11.1818 12.5309V11.2582C11.1818 10.5831 10.9136 9.93563 10.4363 9.45827C9.95891 8.9809 9.31146 8.71272 8.63636 8.71272H3.54545C2.87036 8.71272 2.22291 8.9809 1.74555 9.45827C1.26818 9.93563 1 10.5831 1 11.2582V12.5309" stroke="#080808" stroke-width="1.4" stroke-linecap="round" stroke-linejoin="round"/>
<path d="M6.09086 6.16726C7.49668 6.16726 8.63632 5.02763 8.63632 3.62181C8.63632 2.21599 7.49668 1.07635 6.09086 1.07635C4.68505 1.07635 3.54541 2.21599 3.54541 3.62181C3.54541 5.02763 4.68505 6.16726 6.09086 6.16726Z" stroke="#080808" stroke-width="1.4" stroke-linecap="round" stroke-linejoin="round"/>
<path d="M15 12.5309V11.2582C14.9996 10.6942 14.8119 10.1463 14.4664 9.70057C14.1208 9.25482 13.637 8.93645 13.0909 8.79546" stroke="#080808" stroke-width="1.4" stroke-linecap="round" stroke-linejoin="round"/>
<path d="M10.5454 1.15909C11.0929 1.29928 11.5783 1.61772 11.9248 2.06419C12.2714 2.51067 12.4595 3.0598 12.4595 3.625C12.4595 4.1902 12.2714 4.73932 11.9248 5.1858C11.5783 5.63228 11.0929 5.95071 10.5454 6.09091" stroke="#080808" stroke-width="1.4" stroke-linecap="round" stroke-linejoin="round"/>
</svg>
