<svg width="48" height="48" viewBox="0 0 48 48" fill="none" xmlns="http://www.w3.org/2000/svg">
<rect width="48" height="48" rx="8" fill="white" fill-opacity="0.2"/>
<path d="M32.4848 40.5334V37.1394C32.4848 35.3392 31.7696 33.6126 30.4966 32.3397C29.2237 31.0667 27.4971 30.3515 25.6969 30.3515H12.1211C10.3209 30.3515 8.59435 31.0667 7.32138 32.3397C6.0484 33.6126 5.33325 35.3392 5.33325 37.1394V40.5334" stroke="white" stroke-width="2" stroke-linecap="round" stroke-linejoin="round"/>
<path d="M18.909 23.5637C22.6578 23.5637 25.6969 20.5246 25.6969 16.7758C25.6969 13.0269 22.6578 9.98789 18.909 9.98789C15.1601 9.98789 12.1211 13.0269 12.1211 16.7758C12.1211 20.5246 15.1601 23.5637 18.909 23.5637Z" stroke="white" stroke-width="2" stroke-linecap="round" stroke-linejoin="round"/>
<path d="M42.6666 40.5334V37.1394C42.6655 35.6354 42.1649 34.1744 41.2435 32.9858C40.322 31.7971 39.0319 30.9481 37.5757 30.5721" stroke="white" stroke-width="2" stroke-linecap="round" stroke-linejoin="round"/>
<path d="M30.7878 10.2085C32.2479 10.5823 33.5421 11.4315 34.4663 12.6221C35.3904 13.8127 35.8921 15.2771 35.8921 16.7843C35.8921 18.2915 35.3904 19.7558 34.4663 20.9464C33.5421 22.137 32.2479 22.9862 30.7878 23.36" stroke="white" stroke-width="2" stroke-linecap="round" stroke-linejoin="round"/>
</svg>
