<svg width="16" height="16" viewBox="0 0 16 16" fill="none" xmlns="http://www.w3.org/2000/svg">
<path d="M5.64343 7.52871C6.39876 6.77338 7.7161 6.77338 8.47143 7.52871C8.73174 7.78902 9.15379 7.78902 9.4141 7.52871C9.67441 7.2684 9.67441 6.84635 9.4141 6.58604C8.78543 5.95671 7.9481 5.60938 7.05743 5.60938C6.16676 5.60938 5.32943 5.95671 4.70076 6.58604L3.2861 8.00004C2.66229 8.62585 2.31201 9.47343 2.31201 10.357C2.31201 11.2407 2.66229 12.0882 3.2861 12.714C3.59535 13.0237 3.96274 13.2693 4.36718 13.4365C4.77161 13.6038 5.20511 13.6895 5.64276 13.6887C6.08054 13.6896 6.51417 13.604 6.91873 13.4367C7.32329 13.2694 7.69079 13.0238 8.0001 12.714C8.26041 12.4537 8.26041 12.0317 8.0001 11.7714C7.73979 11.5111 7.31774 11.5111 7.05743 11.7714C6.68174 12.1454 6.17321 12.3554 5.6431 12.3554C5.11298 12.3554 4.60445 12.1454 4.22876 11.7714C3.85443 11.3959 3.64423 10.8873 3.64423 10.357C3.64423 9.82682 3.85443 9.31822 4.22876 8.94271L5.64343 7.52871Z" fill="#139EC7"/>
<path d="M8.00008 3.28604C7.73977 3.54635 7.73977 3.96839 8.00008 4.2287C8.26039 4.48901 8.68244 4.48901 8.94275 4.2287C9.31843 3.8547 9.82697 3.64472 10.3571 3.64472C10.8872 3.64472 11.3957 3.8547 11.7714 4.2287C12.1457 4.60422 12.3559 5.11281 12.3559 5.64304C12.3559 6.17326 12.1457 6.68186 11.7714 7.05737L10.3567 8.47137C9.60141 9.2267 8.28408 9.2267 7.52875 8.47137C7.26844 8.21106 6.84639 8.21106 6.58608 8.47137C6.32577 8.73168 6.32577 9.15373 6.58608 9.41404C7.21475 10.0434 8.05208 10.3907 8.94275 10.3907C9.83341 10.3907 10.6707 10.0434 11.2994 9.41404L12.7141 8.00004C13.3379 7.37423 13.6882 6.52665 13.6882 5.64304C13.6882 4.75942 13.3379 3.91185 12.7141 3.28604C12.0884 2.66191 11.2408 2.3114 10.3571 2.3114C9.47336 2.3114 8.62572 2.66191 8.00008 3.28604Z" fill="#139EC7"/>
</svg>
