<svg width="16" height="14" viewBox="0 0 16 14" fill="none" xmlns="http://www.w3.org/2000/svg">
<path d="M2 10.8309V10.3434C2 10.0884 2.12 9.8484 2.3075 9.7359C3.575 8.9784 5.0225 8.5809 6.5 8.5809C6.5225 8.5809 6.5375 8.5809 6.56 8.5884C6.635 8.0634 6.785 7.5609 7.0025 7.1034C6.8375 7.0884 6.6725 7.0809 6.5 7.0809C4.685 7.0809 2.99 7.5834 1.5425 8.4459C0.8825 8.8359 0.5 9.5709 0.5 10.3434V12.3309H7.445C7.13 11.8809 6.8825 11.3709 6.7175 10.8309H2ZM6.5 6.3309C8.1575 6.3309 9.5 4.9884 9.5 3.3309C9.5 1.6734 8.1575 0.330902 6.5 0.330902C4.8425 0.330902 3.5 1.6734 3.5 3.3309C3.5 4.9884 4.8425 6.3309 6.5 6.3309ZM6.5 1.8309C7.325 1.8309 8 2.5059 8 3.3309C8 4.1559 7.325 4.8309 6.5 4.8309C5.675 4.8309 5 4.1559 5 3.3309C5 2.5059 5.675 1.8309 6.5 1.8309ZM14.5625 9.3309C14.5625 9.1659 14.54 9.0159 14.5175 8.8584L15.3725 8.1009L14.6225 6.8034L13.535 7.1709C13.295 6.9684 13.025 6.8109 12.725 6.6984L12.5 5.5809H11L10.775 6.6984C10.475 6.8109 10.205 6.9684 9.965 7.1709L8.8775 6.8034L8.1275 8.1009L8.9825 8.8584C8.96 9.0159 8.9375 9.1659 8.9375 9.3309C8.9375 9.4959 8.96 9.6459 8.9825 9.8034L8.1275 10.5609L8.8775 11.8584L9.965 11.4909C10.205 11.6934 10.475 11.8509 10.775 11.9634L11 13.0809H12.5L12.725 11.9634C13.025 11.8509 13.295 11.6934 13.535 11.4909L14.6225 11.8584L15.3725 10.5609L14.5175 9.8034C14.54 9.6459 14.5625 9.4959 14.5625 9.3309V9.3309ZM11.75 10.8309C10.925 10.8309 10.25 10.1559 10.25 9.3309C10.25 8.5059 10.925 7.8309 11.75 7.8309C12.575 7.8309 13.25 8.5059 13.25 9.3309C13.25 10.1559 12.575 10.8309 11.75 10.8309Z" fill="#080808"/>
</svg>
