<svg width="14" height="15" viewBox="0 0 14 15" fill="none" xmlns="http://www.w3.org/2000/svg">
<path d="M9.8 9.86493C10.233 9.86493 10.584 9.51392 10.584 9.08093C10.584 8.64794 10.233 8.29693 9.8 8.29693C9.36701 8.29693 9.016 8.64794 9.016 9.08093C9.016 9.51392 9.36701 9.86493 9.8 9.86493Z" fill="#080808"/>
<path d="M9.8 10.4809C9.289 10.4809 8.267 10.7329 8.232 11.2369C8.582 11.7339 9.156 12.0559 9.8 12.0559C10.444 12.0559 11.018 11.7339 11.368 11.2369C11.333 10.7329 10.311 10.4809 9.8 10.4809Z" fill="#080808"/>
<path fill-rule="evenodd" clip-rule="evenodd" d="M10.5 2.61993V5.99393C12.488 6.32993 14 8.05193 14 10.1309C14 12.4479 12.117 14.3309 9.8 14.3309C8.379 14.3309 7.126 13.6239 6.37 12.5459C6.006 12.7069 5.635 12.8399 5.25 12.9309C2.24 12.2099 0 9.23493 0 6.05693V2.61993L5.25 0.330933L10.5 2.61993ZM5.761 11.2649C5.656 10.9079 5.6 10.5229 5.6 10.1309C5.6 8.05193 7.112 6.32993 9.1 5.99393V3.53693L5.25 1.85693L1.4 3.53693V6.05693C1.4 8.50693 3.031 10.7749 5.25 11.4749C5.425 11.4189 5.593 11.3419 5.761 11.2649ZM7 10.1309C7 11.6779 8.253 12.9309 9.8 12.9309C11.347 12.9309 12.6 11.6779 12.6 10.1309C12.6 8.58393 11.347 7.33093 9.8 7.33093C8.253 7.33093 7 8.58393 7 10.1309Z" fill="#080808"/>
</svg>
