<svg width="48" height="48" viewBox="0 0 48 48" fill="none" xmlns="http://www.w3.org/2000/svg">
<rect width="48" height="48" rx="8" fill="white" fill-opacity="0.2"/>
<path d="M31.4673 30.7573C32.622 30.7573 33.558 29.8213 33.558 28.6667C33.558 27.512 32.622 26.576 31.4673 26.576C30.3127 26.576 29.3767 27.512 29.3767 28.6667C29.3767 29.8213 30.3127 30.7573 31.4673 30.7573Z" fill="white"/>
<path d="M31.4673 32.4C30.1047 32.4 27.3793 33.072 27.286 34.416C28.2193 35.7413 29.75 36.6 31.4673 36.6C33.1847 36.6 34.7153 35.7413 35.6487 34.416C35.5553 33.072 32.83 32.4 31.4673 32.4Z" fill="white"/>
<path fill-rule="evenodd" clip-rule="evenodd" d="M33.334 11.4373V20.4347C38.6353 21.3307 42.6673 25.9227 42.6673 31.4667C42.6673 37.6453 37.646 42.6667 31.4673 42.6667C27.678 42.6667 24.3367 40.7813 22.3207 37.9067C21.35 38.336 20.3607 38.6907 19.334 38.9333C11.3073 37.0107 5.33398 29.0773 5.33398 20.6027V11.4373L19.334 5.33334L33.334 11.4373ZM20.6967 34.4907C20.4167 33.5387 20.2673 32.512 20.2673 31.4667C20.2673 25.9227 24.2993 21.3307 29.6007 20.4347V13.8827L19.334 9.40267L9.06732 13.8827V20.6027C9.06732 27.136 13.4167 33.184 19.334 35.0507C19.8007 34.9013 20.2487 34.696 20.6967 34.4907ZM24.0007 31.4667C24.0007 35.592 27.342 38.9333 31.4673 38.9333C35.5927 38.9333 38.934 35.592 38.934 31.4667C38.934 27.3413 35.5927 24 31.4673 24C27.342 24 24.0007 27.3413 24.0007 31.4667Z" fill="white"/>
</svg>
