<svg width="48" height="48" viewBox="0 0 48 48" fill="none" xmlns="http://www.w3.org/2000/svg">
<rect width="48" height="48" rx="8" fill="white" fill-opacity="0.2"/>
<path d="M8 36V34.7C8 34.02 8.32 33.38 8.82 33.08C12.2 31.06 16.06 30 20 30C20.06 30 20.1 30 20.16 30.02C20.36 28.62 20.76 27.28 21.34 26.06C20.9 26.02 20.46 26 20 26C15.16 26 10.64 27.34 6.78 29.64C5.02 30.68 4 32.64 4 34.7V40H22.52C21.68 38.8 21.02 37.44 20.58 36H8ZM20 24C24.42 24 28 20.42 28 16C28 11.58 24.42 8 20 8C15.58 8 12 11.58 12 16C12 20.42 15.58 24 20 24ZM20 12C22.2 12 24 13.8 24 16C24 18.2 22.2 20 20 20C17.8 20 16 18.2 16 16C16 13.8 17.8 12 20 12ZM41.5 32C41.5 31.56 41.44 31.16 41.38 30.74L43.66 28.72L41.66 25.26L38.76 26.24C38.12 25.7 37.4 25.28 36.6 24.98L36 22H32L31.4 24.98C30.6 25.28 29.88 25.7 29.24 26.24L26.34 25.26L24.34 28.72L26.62 30.74C26.56 31.16 26.5 31.56 26.5 32C26.5 32.44 26.56 32.84 26.62 33.26L24.34 35.28L26.34 38.74L29.24 37.76C29.88 38.3 30.6 38.72 31.4 39.02L32 42H36L36.6 39.02C37.4 38.72 38.12 38.3 38.76 37.76L41.66 38.74L43.66 35.28L41.38 33.26C41.44 32.84 41.5 32.44 41.5 32ZM34 36C31.8 36 30 34.2 30 32C30 29.8 31.8 28 34 28C36.2 28 38 29.8 38 32C38 34.2 36.2 36 34 36Z" fill="white"/>
</svg>
