<svg width="10" height="10" viewBox="0 0 10 10" fill="none" xmlns="http://www.w3.org/2000/svg">
<path fill-rule="evenodd" clip-rule="evenodd" d="M8.8498 5.70001H1.1498C0.957305 5.70001 0.799805 5.85751 0.799805 6.05001V6.75001C0.799805 6.84283 0.83668 6.93186 0.902317 6.99749C0.967955 7.06313 1.05698 7.10001 1.1498 7.10001H8.8498C8.94263 7.10001 9.03165 7.06313 9.09729 6.99749C9.16293 6.93186 9.1998 6.84283 9.1998 6.75001V6.05001C9.1998 5.95718 9.16293 5.86816 9.09729 5.80252C9.03165 5.73688 8.94263 5.70001 8.8498 5.70001ZM8.8498 2.90001H1.1498C0.957305 2.90001 0.799805 3.05751 0.799805 3.25001V3.95001C0.799805 4.04283 0.83668 4.13186 0.902317 4.19749C0.967955 4.26313 1.05698 4.30001 1.1498 4.30001H8.8498C8.94263 4.30001 9.03165 4.26313 9.09729 4.19749C9.16293 4.13186 9.1998 4.04283 9.1998 3.95001V3.25001C9.1998 3.15718 9.16293 3.06816 9.09729 3.00252C9.03165 2.93688 8.94263 2.90001 8.8498 2.90001ZM5.3498 8.50001H1.1498C0.957305 8.50001 0.799805 8.65751 0.799805 8.85001V9.55C0.799805 9.64283 0.83668 9.73186 0.902317 9.79749C0.967955 9.86313 1.05698 9.90001 1.1498 9.90001H5.3498C5.44263 9.90001 5.53165 9.86313 5.59729 9.79749C5.66293 9.73186 5.6998 9.64283 5.6998 9.55V8.85001C5.6998 8.75718 5.66293 8.66816 5.59729 8.60252C5.53165 8.53688 5.44263 8.50001 5.3498 8.50001ZM8.8498 0.100006H1.1498C0.957305 0.100006 0.799805 0.257506 0.799805 0.450006V1.15001C0.799805 1.24283 0.83668 1.33186 0.902317 1.39749C0.967955 1.46313 1.05698 1.50001 1.1498 1.50001H8.8498C8.94263 1.50001 9.03165 1.46313 9.09729 1.39749C9.16293 1.33186 9.1998 1.24283 9.1998 1.15001V0.450006C9.1998 0.35718 9.16293 0.268157 9.09729 0.202519C9.03165 0.136881 8.94263 0.100006 8.8498 0.100006Z" fill="#4D4D4D"/>
</svg>
