<svg width="48" height="48" viewBox="0 0 48 48" fill="none" xmlns="http://www.w3.org/2000/svg">
<rect width="48" height="48" rx="8" fill="white" fill-opacity="0.2"/>
<path d="M34.4945 9.58056C34.436 18.5652 34.6235 27.541 35.0571 36.5153C36.0182 36.255 36.9792 35.9947 37.9403 35.7344C35.5194 32.4144 32.9804 29.9834 29.0075 28.7732C26.6393 28.0518 24.1734 27.6218 21.7213 27.3116C20.0614 27.1016 18.3957 26.9572 16.7223 26.9176C14.2148 26.8582 13.2951 27.6522 11.8869 25.308C10.569 23.1142 10.6253 20.1779 13.8194 18.9034C14.8091 18.5085 16.879 18.9276 17.9585 18.9325C20.1182 18.9423 22.2002 19.0441 24.2689 18.3635C28.9466 16.8245 33.2105 13.3032 36.7053 9.94891C38.1448 8.56724 35.9548 6.38093 34.5171 7.76079C31.5103 10.6468 28.0679 13.5139 24.1445 15.0698C20.8105 16.392 17.2959 15.6002 13.8194 15.8089C9.33462 16.0781 8.1575 18.5687 8.00929 22.8534C7.89958 26.0254 8.73067 29.3731 12.1377 30.0412C16.0259 30.8036 20.2766 30.0372 24.2825 30.8226C28.9934 31.7463 32.3529 33.2981 35.2683 37.2962C36.0951 38.4301 38.2325 38.1903 38.1516 36.5153C37.7179 27.5409 37.5305 18.5652 37.589 9.58056C37.602 7.58894 34.5075 7.58677 34.4945 9.58056Z" fill="white"/>
<path d="M36.8236 19.3154C38.6094 19.2989 39.407 20.551 39.5275 22.1905C39.6659 24.072 38.995 25.29 36.9797 25.5635C35.0154 25.83 35.8518 28.8121 37.8023 28.5474C39.2443 28.3517 40.9883 27.5279 41.869 26.3204C42.7953 25.0506 42.7296 23.1085 42.5741 21.6111C42.2514 18.5015 40.0225 16.1915 36.8236 16.2209C34.8334 16.2392 34.8285 19.3338 36.8236 19.3154Z" fill="white"/>
<path d="M18.3123 17.6032C18.2596 20.9305 18.3339 24.2524 18.5352 27.5741C18.6551 29.5528 21.7504 29.5665 21.6297 27.5741C21.4284 24.2524 21.3541 20.9305 21.4068 17.6032C21.4383 15.6112 18.3438 15.6106 18.3123 17.6032Z" fill="white"/>
<path d="M13.2627 29.0641C13.2627 31.3181 13.2627 33.5721 13.2627 35.8261C13.2627 37.8172 16.3572 37.8205 16.3572 35.8261C16.3572 33.5721 16.3572 31.3181 16.3572 29.0641C16.3572 27.0729 13.2627 27.0696 13.2627 29.0641Z" fill="white"/>
</svg>
