<svg width="13" height="12" viewBox="0 0 13 12" fill="none" xmlns="http://www.w3.org/2000/svg">
<path d="M9.93545 0.923615C9.9135 4.29285 9.98379 7.65877 10.1464 11.0241C10.5068 10.9265 10.8672 10.8289 11.2276 10.7313C10.3198 9.48629 9.36765 8.57468 7.87781 8.12084C6.98973 7.85031 6.06503 7.68908 5.1455 7.57276C4.52301 7.49402 3.89839 7.43986 3.27085 7.42499C2.33057 7.40272 1.98565 7.70049 1.45757 6.82142C0.963358 5.99873 0.984495 4.89761 2.18229 4.41967C2.55342 4.27159 3.32963 4.42876 3.73443 4.4306C4.54433 4.43427 5.32506 4.47244 6.10085 4.21721C7.85496 3.64011 9.45392 2.31961 10.7645 1.06174C11.3043 0.543618 10.483 -0.276247 9.94392 0.241197C8.81635 1.32345 7.52545 2.39863 6.05419 2.98208C4.80392 3.47789 3.48598 3.18099 2.18229 3.25924C0.500481 3.36019 0.0590615 4.29418 0.0034855 5.90091C-0.0376585 7.09042 0.274002 8.34582 1.55165 8.59635C3.00969 8.88227 4.60374 8.59486 6.10593 8.88939C7.87252 9.23576 9.13233 9.81768 10.2256 11.317C10.5357 11.7422 11.3372 11.6523 11.3068 11.0241C11.1442 7.65875 11.0739 4.29284 11.0959 0.923615C11.1007 0.176757 9.94032 0.17594 9.93545 0.923615Z" fill="#080808"/>
<path d="M10.809 4.57417C11.4786 4.568 11.7777 5.03753 11.8229 5.65233C11.8748 6.35788 11.6232 6.81465 10.8675 6.9172C10.1309 7.01715 10.4446 8.13542 11.176 8.03617C11.7167 7.9628 12.3707 7.65385 12.701 7.20104C13.0483 6.72486 13.0237 5.99659 12.9654 5.43506C12.8444 4.26897 12.0086 3.4027 10.809 3.41374C10.0626 3.42061 10.0608 4.58105 10.809 4.57417Z" fill="#080808"/>
<path d="M3.86723 3.9321C3.84748 5.17986 3.87533 6.42557 3.95082 7.6712C3.99579 8.4132 5.15653 8.41833 5.11125 7.6712C5.03576 6.42556 5.00791 5.17985 5.02766 3.9321C5.03948 3.1851 3.87905 3.18488 3.86723 3.9321Z" fill="#080808"/>
<path d="M1.97363 8.22994C1.97363 9.07519 1.97363 9.92044 1.97363 10.7657C1.97363 11.5124 3.13406 11.5136 3.13406 10.7657C3.13406 9.92044 3.13406 9.07519 3.13406 8.22994C3.13406 7.48326 1.97363 7.48202 1.97363 8.22994Z" fill="#080808"/>
</svg>
