<svg width="18" height="18" viewBox="0 0 18 18" fill="none" xmlns="http://www.w3.org/2000/svg">
<path fill-rule="evenodd" clip-rule="evenodd" d="M8.77736 2.25C7.57309 2.25 6.5068 3.0281 6.13943 4.17496L3.40414 12.714C3.27964 13.1026 3.5696 13.5 3.97773 13.5H13.577C13.9851 13.5 14.2751 13.1026 14.1506 12.714L11.4153 4.17496C11.0479 3.0281 9.98162 2.25 8.77736 2.25ZM7.08986 14.625C6.7792 14.625 6.52736 14.8768 6.52736 15.1875C6.52736 15.4982 6.7792 15.75 7.08986 15.75H10.4649C10.7755 15.75 11.0274 15.4982 11.0274 15.1875C11.0274 14.8768 10.7755 14.625 10.4649 14.625H7.08986Z" fill="#F3772C"/>
</svg>
