<svg width="51" height="52" viewBox="0 0 51 52" fill="none" xmlns="http://www.w3.org/2000/svg">
<g filter="url(#filter0_dd_184_4983)">
<circle cx="25.5" cy="23.5" r="16.5" fill="#139EC8"/>
</g>
<path fill-rule="evenodd" clip-rule="evenodd" d="M22.556 20.0624L22.3176 20.8H21.5992C20.9627 20.8 20.3522 21.0529 19.9022 21.503C19.4521 21.9531 19.1992 22.5635 19.1992 23.2V28C19.1992 28.6365 19.4521 29.247 19.9022 29.6971C20.3522 30.1472 20.9627 30.4 21.5992 30.4H30.3992C31.0357 30.4 31.6462 30.1472 32.0963 29.6971C32.5464 29.247 32.7992 28.6365 32.7992 28V23.2C32.7992 22.5635 32.5464 21.9531 32.0963 21.503C31.6462 21.0529 31.0357 20.8 30.3992 20.8H29.68L29.4424 20.0624C29.2864 19.5794 28.9813 19.1583 28.5709 18.8596C28.1605 18.5609 27.666 18.4 27.1584 18.4H24.8392C24.3316 18.4 23.8371 18.5609 23.4267 18.8596C23.0163 19.1583 22.7112 19.5794 22.5552 20.0624H22.556ZM21.5992 22.4H23.4824L24.0792 20.5544C24.1311 20.3935 24.2327 20.2531 24.3694 20.1535C24.5061 20.0539 24.6709 20.0001 24.84 20H27.1584C27.3276 20.0001 27.4923 20.0539 27.629 20.1535C27.7657 20.2531 27.8673 20.3935 27.9192 20.5544L28.5152 22.4H30.3992C30.6114 22.4 30.8149 22.4843 30.9649 22.6343C31.1149 22.7844 31.1992 22.9879 31.1992 23.2V28C31.1992 28.2122 31.1149 28.4157 30.9649 28.5657C30.8149 28.7157 30.6114 28.8 30.3992 28.8H21.5992C21.387 28.8 21.1836 28.7157 21.0335 28.5657C20.8835 28.4157 20.7992 28.2122 20.7992 28V23.2C20.7992 22.9879 20.8835 22.7844 21.0335 22.6343C21.1836 22.4843 21.387 22.4 21.5992 22.4Z" fill="white"/>
<path fill-rule="evenodd" clip-rule="evenodd" d="M23.1992 25.2C23.1992 25.5677 23.2716 25.9318 23.4124 26.2715C23.5531 26.6112 23.7593 26.9199 24.0193 27.1799C24.2793 27.4399 24.588 27.6462 24.9277 27.7869C25.2674 27.9276 25.6315 28 25.9992 28C26.3669 28 26.731 27.9276 27.0707 27.7869C27.4104 27.6462 27.7191 27.4399 27.9791 27.1799C28.2391 26.9199 28.4454 26.6112 28.5861 26.2715C28.7268 25.9318 28.7992 25.5677 28.7992 25.2C28.7992 24.4574 28.5042 23.7452 27.9791 23.2201C27.454 22.695 26.7418 22.4 25.9992 22.4C25.2566 22.4 24.5444 22.695 24.0193 23.2201C23.4942 23.7452 23.1992 24.4574 23.1992 25.2ZM27.1992 25.2C27.1992 25.5183 27.0728 25.8235 26.8477 26.0486C26.6227 26.2736 26.3175 26.4 25.9992 26.4C25.681 26.4 25.3757 26.2736 25.1507 26.0486C24.9256 25.8235 24.7992 25.5183 24.7992 25.2C24.7992 24.8818 24.9256 24.5765 25.1507 24.3515C25.3757 24.1265 25.681 24 25.9992 24C26.3175 24 26.6227 24.1265 26.8477 24.3515C27.0728 24.5765 27.1992 24.8818 27.1992 25.2Z" fill="white"/>
<defs>
<filter id="filter0_dd_184_4983" x="0" y="0.75" width="51" height="51" filterUnits="userSpaceOnUse" color-interpolation-filters="sRGB">
<feFlood flood-opacity="0" result="BackgroundImageFix"/>
<feColorMatrix in="SourceAlpha" type="matrix" values="0 0 0 0 0 0 0 0 0 0 0 0 0 0 0 0 0 0 127 0" result="hardAlpha"/>
<feOffset dy="2.75"/>
<feGaussianBlur stdDeviation="4.5"/>
<feColorMatrix type="matrix" values="0 0 0 0 0 0 0 0 0 0 0 0 0 0 0 0 0 0 0.19 0"/>
<feBlend mode="normal" in2="BackgroundImageFix" result="effect1_dropShadow_184_4983"/>
<feColorMatrix in="SourceAlpha" type="matrix" values="0 0 0 0 0 0 0 0 0 0 0 0 0 0 0 0 0 0 127 0" result="hardAlpha"/>
<feOffset dy="0.25"/>
<feGaussianBlur stdDeviation="1.5"/>
<feColorMatrix type="matrix" values="0 0 0 0 0 0 0 0 0 0 0 0 0 0 0 0 0 0 0.039 0"/>
<feBlend mode="normal" in2="effect1_dropShadow_184_4983" result="effect2_dropShadow_184_4983"/>
<feBlend mode="normal" in="SourceGraphic" in2="effect2_dropShadow_184_4983" result="shape"/>
</filter>
</defs>
</svg>
