<svg width="12" height="12" viewBox="0 0 12 12" fill="none" xmlns="http://www.w3.org/2000/svg">
<path d="M6.42039 5.29999C6.14039 5.22999 5.86039 5.08999 5.65039 4.87999C5.44039 4.80999 5.37039 4.59999 5.37039 4.45999C5.37039 4.31999 5.44039 4.10999 5.58039 4.03999C5.79039 3.89999 6.00039 3.75999 6.21039 3.82999C6.63039 3.82999 6.98039 4.03999 7.19039 4.31999L7.82039 3.47999C7.61039 3.26999 7.40039 3.12999 7.19039 2.98999C6.98039 2.84999 6.70039 2.77999 6.42039 2.77999V1.79999H5.58039V2.77999C5.23039 2.84999 4.88039 3.05999 4.60039 3.33999C4.32039 3.68999 4.11039 4.10999 4.18039 4.52999C4.18039 4.94999 4.32039 5.36999 4.60039 5.64999C4.95039 5.99999 5.44039 6.20999 5.86039 6.41999C6.07039 6.48999 6.35039 6.62999 6.56039 6.76999C6.70039 6.90999 6.77039 7.11999 6.77039 7.32999C6.77039 7.53999 6.70039 7.74999 6.56039 7.95999C6.35039 8.16999 6.07039 8.23999 5.86039 8.23999C5.58039 8.23999 5.23039 8.16999 5.02039 7.95999C4.81039 7.81999 4.60039 7.60999 4.46039 7.39999L3.76039 8.16999C3.97039 8.44999 4.18039 8.65999 4.46039 8.86999C4.81039 9.07999 5.23039 9.28999 5.65039 9.28999V10.2H6.42039V9.14999C6.84039 9.07999 7.19039 8.86999 7.47039 8.58999C7.82039 8.23999 8.03039 7.67999 8.03039 7.18999C8.03039 6.76999 7.89039 6.27999 7.54039 5.99999C7.19039 5.64999 6.84039 5.43999 6.42039 5.29999V5.29999ZM6.00039 0.399994C2.92039 0.399994 0.400391 2.91999 0.400391 5.99999C0.400391 9.07999 2.92039 11.6 6.00039 11.6C9.08039 11.6 11.6004 9.07999 11.6004 5.99999C11.6004 2.91999 9.08039 0.399994 6.00039 0.399994ZM6.00039 10.83C3.34039 10.83 1.17039 8.65999 1.17039 5.99999C1.17039 3.33999 3.34039 1.16999 6.00039 1.16999C8.66039 1.16999 10.8304 3.33999 10.8304 5.99999C10.8304 8.65999 8.66039 10.83 6.00039 10.83V10.83Z" fill="#080808"/>
</svg>
