<svg width="15" height="15" viewBox="0 0 15 15" fill="none" xmlns="http://www.w3.org/2000/svg">
<path fill-rule="evenodd" clip-rule="evenodd" d="M10.6529 12.2719C10.6529 12.5268 10.7279 12.7518 10.8628 12.9617C10.9978 13.1716 10.9678 13.2766 10.7579 13.4115C10.0831 13.8314 9.37831 14.1313 8.59857 14.3113C8.35864 14.3712 8.25368 14.2963 8.20869 14.0563C8.10373 13.4265 7.60889 12.9917 6.99408 12.9767C6.36429 12.9617 5.85445 13.3816 5.7195 14.0114C5.65952 14.3113 5.58454 14.3562 5.28464 14.2813C4.54987 14.1013 3.87509 13.8164 3.2303 13.4115C3.02037 13.2916 3.00537 13.1716 3.12533 12.9617C3.45523 12.4219 3.39525 11.7921 2.96039 11.3572C2.54052 10.9224 1.89573 10.8624 1.34091 11.1923C1.14597 11.3122 1.02601 11.2822 0.906051 11.0873C0.486187 10.4125 0.186284 9.70774 0.00634163 8.928C-0.0236487 8.73306 0.0513271 8.6131 0.261259 8.58311C0.921046 8.46315 1.35591 7.95331 1.35591 7.32351C1.35591 6.67872 0.921046 6.18388 0.261259 6.06392C0.0513271 6.01893 -0.0236487 5.91397 0.0213368 5.70404C0.201279 4.93928 0.501182 4.20452 0.921046 3.52974C1.04101 3.3498 1.16097 3.3348 1.35591 3.45476C1.80576 3.73967 2.27061 3.75467 2.72047 3.48475C3.17032 3.21484 3.38025 2.79498 3.32027 2.28514C3.30634 2.09011 3.21476 1.90803 3.12969 1.73889L3.11034 1.70033C3.00537 1.4904 3.02037 1.38543 3.21531 1.26547C3.87509 0.8606 4.57986 0.560697 5.32962 0.380755C5.55455 0.320774 5.65952 0.39575 5.7045 0.620677C5.83946 1.26547 6.3343 1.68533 6.97909 1.68533C7.60889 1.68533 8.10373 1.25047 8.22369 0.590687C8.26867 0.36576 8.37364 0.290784 8.59857 0.350765C9.37831 0.530706 10.0981 0.83061 10.7879 1.25047C10.9828 1.37044 10.9978 1.4904 10.8778 1.68533C10.5479 2.22516 10.6079 2.85496 11.0428 3.28982C11.4776 3.72468 12.1074 3.78466 12.6473 3.45476C12.8572 3.31981 12.9622 3.3498 13.0971 3.55973C13.517 4.21952 13.8019 4.93928 13.9818 5.70404C14.0268 5.91397 13.9518 6.03393 13.7419 6.07892C13.0971 6.19888 12.6623 6.69372 12.6473 7.32351C12.6473 7.9683 13.0821 8.47814 13.7419 8.58311C13.9668 8.62809 14.0418 8.73306 13.9818 8.95798C13.8019 9.72274 13.502 10.4275 13.0971 11.0873C12.9622 11.2972 12.8572 11.3272 12.6473 11.1923C12.2124 10.9224 11.7625 10.9074 11.3277 11.1473C10.8778 11.3872 10.6679 11.7771 10.6529 12.2719ZM7 10.8309C8.933 10.8309 10.5 9.26393 10.5 7.33093C10.5 5.39794 8.933 3.83093 7 3.83093C5.067 3.83093 3.5 5.39794 3.5 7.33093C3.5 9.26393 5.067 10.8309 7 10.8309Z" fill="#A9A9A9"/>
</svg>
