<svg width="26" height="26" viewBox="0 0 26 26" fill="none" xmlns="http://www.w3.org/2000/svg">
<rect x="1" y="1" width="24" height="24" rx="12" fill="white"/>
<path d="M9.58241 16.4193C8.35241 15.5459 7.37908 14.4099 6.82908 13.6926C6.67528 13.4946 6.5918 13.251 6.5918 13.0003C6.5918 12.7496 6.67528 12.506 6.82908 12.3079C7.82441 11.0086 10.2124 8.33328 13.0004 8.33328C14.2511 8.33328 15.4204 8.87128 16.4204 9.58262" stroke="#A9A9A9" stroke-width="1.33333" stroke-linecap="round" stroke-linejoin="round"/>
<path d="M14.42 11.5913C14.2349 11.4031 14.0143 11.2534 13.771 11.1508C13.5277 11.0483 13.2665 10.9949 13.0025 10.9938C12.7385 10.9927 12.4769 11.0439 12.2328 11.1444C11.9886 11.2449 11.7668 11.3927 11.5801 11.5794C11.3934 11.7661 11.2455 11.9878 11.1449 12.232C11.0444 12.4761 10.9931 12.7377 10.9942 13.0017C10.9952 13.2657 11.0485 13.5269 11.151 13.7702C11.2535 14.0135 11.4031 14.2341 11.5913 14.4193" stroke="#A9A9A9" stroke-width="1.33333" stroke-linecap="round" stroke-linejoin="round"/>
<path d="M7.66797 18.3333L18.3346 7.66663" stroke="#A9A9A9" stroke-width="1.33333" stroke-linecap="round" stroke-linejoin="round"/>
<path d="M11.668 17.4693C12.1008 17.5981 12.5497 17.6646 13.0013 17.6666C15.7893 17.6666 18.1773 14.9913 19.1726 13.692C19.3264 13.4938 19.4098 13.25 19.4097 12.9992C19.4095 12.7483 19.3259 12.5047 19.172 12.3066C18.8222 11.8503 18.4469 11.414 18.048 11" stroke="#A9A9A9" stroke-width="1.33333" stroke-linecap="round" stroke-linejoin="round"/>
<rect x="1" y="1" width="24" height="24" rx="12" stroke="#A9A9A9"/>
</svg>
