<svg width="24" height="24" viewBox="0 0 24 24" fill="none" xmlns="http://www.w3.org/2000/svg">
<rect width="24" height="24" rx="12" fill="#139EC7"/>
<path d="M18.1717 11.308C18.4877 11.7213 18.4877 12.2793 18.1717 12.692C17.1763 13.9913 14.7883 16.6666 12.0003 16.6666C9.21233 16.6666 6.82433 13.9913 5.829 12.692C5.67526 12.4941 5.5918 12.2506 5.5918 12C5.5918 11.7494 5.67526 11.5059 5.829 11.308C6.82433 10.0086 9.21233 7.33331 12.0003 7.33331C14.7883 7.33331 17.1763 10.0086 18.1717 11.308V11.308Z" stroke="white" stroke-width="1.33333" stroke-linecap="round" stroke-linejoin="round"/>
<path d="M12 14C13.1046 14 14 13.1046 14 12C14 10.8954 13.1046 10 12 10C10.8954 10 10 10.8954 10 12C10 13.1046 10.8954 14 12 14Z" stroke="white" stroke-width="1.33333" stroke-linecap="round" stroke-linejoin="round"/>
</svg>
