<svg width="14" height="16" viewBox="0 0 14 16" fill="none" xmlns="http://www.w3.org/2000/svg">
<path d="M13.6673 8L11.0007 10.6667L10.0607 9.72667L11.114 8.66667H7.62732C7.51627 9.66332 7.15647 10.6161 6.581 11.4373C6.00553 12.2586 5.23285 12.922 4.33398 13.3667C4.32439 13.891 4.10955 14.3907 3.7356 14.7584C3.36166 15.1261 2.85843 15.3326 2.33398 15.3333C1.22732 15.3333 0.333984 14.44 0.333984 13.3333C0.333984 12.2267 1.22732 11.3333 2.33398 11.3333C2.96732 11.3333 3.52065 11.6333 3.88732 12.0933C4.52495 11.748 5.0729 11.2583 5.48734 10.6633C5.90177 10.0682 6.17117 9.38447 6.27398 8.66667H4.20732C3.93398 9.44 3.20065 10 2.33398 10C1.22732 10 0.333984 9.10667 0.333984 8C0.333984 6.89334 1.22732 6 2.33398 6C3.20065 6 3.93398 6.56 4.21398 7.33334H6.28065C6.06732 5.84667 5.15398 4.6 3.88732 3.90667C3.52065 4.36667 2.96732 4.66667 2.33398 4.66667C1.22732 4.66667 0.333984 3.77334 0.333984 2.66667C0.333984 1.56001 1.22732 0.666672 2.33398 0.666672C2.85806 0.666625 3.36107 0.872972 3.73414 1.24105C4.1072 1.60912 4.32031 2.10931 4.32732 2.63334C5.22618 3.07796 5.99887 3.7414 6.57434 4.56267C7.14981 5.38393 7.5096 6.33668 7.62065 7.33334H11.1073L10.054 6.27334L11.0007 5.33334L13.6673 8Z" fill="#4D4D4D"/>
</svg>
