<svg width="17" height="16" viewBox="0 0 17 16" fill="none" xmlns="http://www.w3.org/2000/svg">
<path d="M10.0655 5.8309C10.3483 5.83075 10.6235 5.92192 10.8503 6.09085C11.0771 6.25977 11.2432 6.49742 11.324 6.7684H10.8125C10.505 6.7684 10.214 6.8359 9.95225 6.9559H5.939C5.88927 6.9559 5.84158 6.97566 5.80642 7.01082C5.77125 7.04598 5.7515 7.09367 5.7515 7.1434V10.7052C5.7515 11.6847 6.377 12.5179 7.25 12.8277V13.9969C6.50464 13.8262 5.83926 13.4077 5.36269 12.8097C4.88612 12.2118 4.62657 11.4698 4.6265 10.7052V7.1434C4.6265 6.4189 5.21375 5.8309 5.939 5.8309H10.0655V5.8309ZM13.4375 6.7684C13.983 6.7684 14.5062 6.98446 14.8927 7.36931C15.2793 7.75416 15.4976 8.27645 15.5 8.8219V7.1434C15.5 6.79531 15.3617 6.46147 15.1156 6.21532C14.8694 5.96918 14.5356 5.8309 14.1875 5.8309H11.6562C11.8752 6.09565 12.029 6.4159 12.0942 6.7684H13.4375ZM1.8125 5.8309H4.34825C4.08365 6.15047 3.92205 6.54269 3.88475 6.9559H1.8125C1.76277 6.9559 1.71508 6.97566 1.67992 7.01082C1.64475 7.04598 1.625 7.09367 1.625 7.1434V9.58015C1.62495 9.86356 1.68913 10.1433 1.8127 10.3984C1.93628 10.6534 2.11605 10.8771 2.3385 11.0527C2.56095 11.2284 2.8203 11.3513 3.09707 11.4123C3.37385 11.4733 3.66084 11.4707 3.9365 11.4049C4.00025 11.7829 4.1165 12.1437 4.27625 12.4789C3.83171 12.5978 3.36577 12.6129 2.91447 12.523C2.46317 12.4331 2.03859 12.2406 1.67356 11.9604C1.30853 11.6802 1.01284 11.3198 0.809347 10.9071C0.605853 10.4943 0.500009 10.0403 0.5 9.58015V7.1434C0.5 6.4189 1.088 5.8309 1.8125 5.8309ZM8 0.580902C8.59674 0.580902 9.16903 0.817955 9.59099 1.23991C10.0129 1.66187 10.25 2.23416 10.25 2.8309C10.25 3.42764 10.0129 3.99994 9.59099 4.42189C9.16903 4.84385 8.59674 5.0809 8 5.0809C7.40326 5.0809 6.83097 4.84385 6.40901 4.42189C5.98705 3.99994 5.75 3.42764 5.75 2.8309C5.75 2.23416 5.98705 1.66187 6.40901 1.23991C6.83097 0.817955 7.40326 0.580902 8 0.580902V0.580902ZM8 1.7059C7.70163 1.7059 7.41548 1.82443 7.2045 2.03541C6.99353 2.24639 6.875 2.53253 6.875 2.8309C6.875 3.12927 6.99353 3.41542 7.2045 3.6264C7.41548 3.83738 7.70163 3.9559 8 3.9559C8.29837 3.9559 8.58452 3.83738 8.7955 3.6264C9.00647 3.41542 9.125 3.12927 9.125 2.8309C9.125 2.53253 9.00647 2.24639 8.7955 2.03541C8.58452 1.82443 8.29837 1.7059 8 1.7059ZM12.875 1.3309C13.3723 1.3309 13.8492 1.52845 14.2008 1.88008C14.5525 2.23171 14.75 2.70862 14.75 3.2059C14.75 3.70318 14.5525 4.1801 14.2008 4.53173C13.8492 4.88336 13.3723 5.0809 12.875 5.0809C12.3777 5.0809 11.9008 4.88336 11.5492 4.53173C11.1975 4.1801 11 3.70318 11 3.2059C11 2.70862 11.1975 2.23171 11.5492 1.88008C11.9008 1.52845 12.3777 1.3309 12.875 1.3309ZM12.875 2.4559C12.6761 2.4559 12.4853 2.53492 12.3447 2.67557C12.204 2.81622 12.125 3.00699 12.125 3.2059C12.125 3.40481 12.204 3.59558 12.3447 3.73623C12.4853 3.87688 12.6761 3.9559 12.875 3.9559C13.0739 3.9559 13.2647 3.87688 13.4053 3.73623C13.546 3.59558 13.625 3.40481 13.625 3.2059C13.625 3.00699 13.546 2.81622 13.4053 2.67557C13.2647 2.53492 13.0739 2.4559 12.875 2.4559ZM3.125 1.3309C3.62228 1.3309 4.09919 1.52845 4.45083 1.88008C4.80246 2.23171 5 2.70862 5 3.2059C5 3.70318 4.80246 4.1801 4.45083 4.53173C4.09919 4.88336 3.62228 5.0809 3.125 5.0809C2.62772 5.0809 2.15081 4.88336 1.79917 4.53173C1.44754 4.1801 1.25 3.70318 1.25 3.2059C1.25 2.70862 1.44754 2.23171 1.79917 1.88008C2.15081 1.52845 2.62772 1.3309 3.125 1.3309V1.3309ZM3.125 2.4559C2.92609 2.4559 2.73532 2.53492 2.59467 2.67557C2.45402 2.81622 2.375 3.00699 2.375 3.2059C2.375 3.40481 2.45402 3.59558 2.59467 3.73623C2.73532 3.87688 2.92609 3.9559 3.125 3.9559C3.32391 3.9559 3.51468 3.87688 3.65533 3.73623C3.79598 3.59558 3.875 3.40481 3.875 3.2059C3.875 3.00699 3.79598 2.81622 3.65533 2.67557C3.51468 2.53492 3.32391 2.4559 3.125 2.4559ZM9.5 9.5809H9.125C8.82663 9.5809 8.54048 9.69943 8.3295 9.91041C8.11853 10.1214 8 10.4075 8 10.7059V11.8309H9.875V11.6434C9.875 11.4942 9.93426 11.3511 10.0398 11.2457C10.1452 11.1402 10.2883 11.0809 10.4375 11.0809C10.5867 11.0809 10.7298 11.1402 10.8352 11.2457C10.9407 11.3511 11 11.4942 11 11.6434V11.8309H13.25V11.6434C13.25 11.4942 13.3093 11.3511 13.4148 11.2457C13.5202 11.1402 13.6633 11.0809 13.8125 11.0809C13.9617 11.0809 14.1048 11.1402 14.2102 11.2457C14.3157 11.3511 14.375 11.4942 14.375 11.6434V11.8309H16.25V10.7059C16.25 10.4075 16.1315 10.1214 15.9205 9.91041C15.7095 9.69943 15.4234 9.5809 15.125 9.5809H14.75V8.8309C14.75 8.48281 14.6117 8.14897 14.3656 7.90282C14.1194 7.65668 13.7856 7.5184 13.4375 7.5184H10.8125C10.4644 7.5184 10.1306 7.65668 9.88442 7.90282C9.63828 8.14897 9.5 8.48281 9.5 8.8309V9.5809ZM10.625 8.8309C10.625 8.78117 10.6448 8.73348 10.6799 8.69832C10.7151 8.66316 10.7628 8.6434 10.8125 8.6434H13.4375C13.4872 8.6434 13.5349 8.66316 13.5701 8.69832C13.6052 8.73348 13.625 8.78117 13.625 8.8309V9.5809H10.625V8.8309ZM8 14.4559V12.9559H9.875V13.5184C9.875 13.6676 9.93426 13.8107 10.0398 13.9162C10.1452 14.0216 10.2883 14.0809 10.4375 14.0809C10.5867 14.0809 10.7298 14.0216 10.8352 13.9162C10.9407 13.8107 11 13.6676 11 13.5184V12.9559H13.25V13.5184C13.25 13.6676 13.3093 13.8107 13.4148 13.9162C13.5202 14.0216 13.6633 14.0809 13.8125 14.0809C13.9617 14.0809 14.1048 14.0216 14.2102 13.9162C14.3157 13.8107 14.375 13.6676 14.375 13.5184V12.9559H16.25V14.4559C16.25 14.7543 16.1315 15.0404 15.9205 15.2514C15.7095 15.4624 15.4234 15.5809 15.125 15.5809H9.125C8.82663 15.5809 8.54048 15.4624 8.3295 15.2514C8.11853 15.0404 8 14.7543 8 14.4559Z" fill="#080808"/>
</svg>
