<svg width="48" height="48" viewBox="0 0 48 48" fill="none" xmlns="http://www.w3.org/2000/svg">
<rect width="48" height="48" rx="8" fill="white" fill-opacity="0.2"/>
<path d="M29.508 20C30.2621 19.9996 30.9961 20.2427 31.6008 20.6932C32.2055 21.1437 32.6486 21.7774 32.864 22.5H31.5C30.68 22.5 29.904 22.68 29.206 23H18.504C18.3714 23 18.2442 23.0527 18.1504 23.1464C18.0567 23.2402 18.004 23.3674 18.004 23.5V32.998C18.004 35.61 19.672 37.832 22 38.658V41.776C20.0124 41.3209 18.238 40.2048 16.9672 38.6102C15.6963 37.0157 15.0042 35.037 15.004 32.998V23.5C15.004 21.568 16.57 20 18.504 20H29.508ZM38.5 22.5C39.9545 22.5 41.3499 23.0762 42.3806 24.1024C43.4114 25.1287 43.9937 26.5215 44 27.976V23.5C44 22.5717 43.6312 21.6815 42.9749 21.0251C42.3185 20.3687 41.4283 20 40.5 20H33.75C34.334 20.706 34.744 21.56 34.918 22.5H38.5ZM7.5 20H14.262C13.5564 20.8522 13.1255 21.8981 13.026 23H7.5C7.36739 23 7.24021 23.0527 7.14645 23.1464C7.05268 23.2402 7 23.3674 7 23.5V29.998C6.99987 30.7538 7.17101 31.4997 7.50055 32.1799C7.83008 32.86 8.30946 33.4566 8.90266 33.9249C9.49587 34.3932 10.1875 34.721 10.9255 34.8836C11.6636 35.0463 12.4289 35.0396 13.164 34.864C13.334 35.872 13.644 36.834 14.07 37.728C12.8846 38.0451 11.6421 38.0854 10.4386 37.8456C9.23511 37.6059 8.1029 37.0925 7.12949 36.3453C6.15609 35.5981 5.36758 34.6371 4.82493 33.5364C4.28228 32.4358 4.00002 31.2251 4 29.998V23.5C4 21.568 5.568 20 7.5 20ZM24 6C25.5913 6 27.1174 6.63214 28.2426 7.75736C29.3679 8.88258 30 10.4087 30 12C30 13.5913 29.3679 15.1174 28.2426 16.2426C27.1174 17.3679 25.5913 18 24 18C22.4087 18 20.8826 17.3679 19.7574 16.2426C18.6321 15.1174 18 13.5913 18 12C18 10.4087 18.6321 8.88258 19.7574 7.75736C20.8826 6.63214 22.4087 6 24 6ZM24 9C23.2044 9 22.4413 9.31607 21.8787 9.87868C21.3161 10.4413 21 11.2044 21 12C21 12.7956 21.3161 13.5587 21.8787 14.1213C22.4413 14.6839 23.2044 15 24 15C24.7956 15 25.5587 14.6839 26.1213 14.1213C26.6839 13.5587 27 12.7956 27 12C27 11.2044 26.6839 10.4413 26.1213 9.87868C25.5587 9.31607 24.7956 9 24 9ZM37 8C38.3261 8 39.5979 8.52678 40.5355 9.46447C41.4732 10.4021 42 11.6739 42 13C42 14.3261 41.4732 15.5979 40.5355 16.5355C39.5979 17.4732 38.3261 18 37 18C35.6739 18 34.4021 17.4732 33.4645 16.5355C32.5268 15.5979 32 14.3261 32 13C32 11.6739 32.5268 10.4021 33.4645 9.46447C34.4021 8.52678 35.6739 8 37 8ZM37 11C36.4696 11 35.9609 11.2107 35.5858 11.5858C35.2107 11.9609 35 12.4696 35 13C35 13.5304 35.2107 14.0391 35.5858 14.4142C35.9609 14.7893 36.4696 15 37 15C37.5304 15 38.0391 14.7893 38.4142 14.4142C38.7893 14.0391 39 13.5304 39 13C39 12.4696 38.7893 11.9609 38.4142 11.5858C38.0391 11.2107 37.5304 11 37 11ZM11 8C12.3261 8 13.5979 8.52678 14.5355 9.46447C15.4732 10.4021 16 11.6739 16 13C16 14.3261 15.4732 15.5979 14.5355 16.5355C13.5979 17.4732 12.3261 18 11 18C9.67392 18 8.40215 17.4732 7.46447 16.5355C6.52678 15.5979 6 14.3261 6 13C6 11.6739 6.52678 10.4021 7.46447 9.46447C8.40215 8.52678 9.67392 8 11 8ZM11 11C10.4696 11 9.96086 11.2107 9.58579 11.5858C9.21071 11.9609 9 12.4696 9 13C9 13.5304 9.21071 14.0391 9.58579 14.4142C9.96086 14.7893 10.4696 15 11 15C11.5304 15 12.0391 14.7893 12.4142 14.4142C12.7893 14.0391 13 13.5304 13 13C13 12.4696 12.7893 11.9609 12.4142 11.5858C12.0391 11.2107 11.5304 11 11 11ZM28 30H27C26.2044 30 25.4413 30.3161 24.8787 30.8787C24.3161 31.4413 24 32.2044 24 33V36H29V35.5C29 35.1022 29.158 34.7206 29.4393 34.4393C29.7206 34.158 30.1022 34 30.5 34C30.8978 34 31.2794 34.158 31.5607 34.4393C31.842 34.7206 32 35.1022 32 35.5V36H38V35.5C38 35.1022 38.158 34.7206 38.4393 34.4393C38.7206 34.158 39.1022 34 39.5 34C39.8978 34 40.2794 34.158 40.5607 34.4393C40.842 34.7206 41 35.1022 41 35.5V36H46V33C46 32.2044 45.6839 31.4413 45.1213 30.8787C44.5587 30.3161 43.7957 30 43 30H42V28C42 27.0717 41.6312 26.1815 40.9749 25.5251C40.3185 24.8687 39.4283 24.5 38.5 24.5H31.5C30.5717 24.5 29.6815 24.8687 29.0251 25.5251C28.3687 26.1815 28 27.0717 28 28V30ZM31 28C31 27.8674 31.0527 27.7402 31.1464 27.6464C31.2402 27.5527 31.3674 27.5 31.5 27.5H38.5C38.6326 27.5 38.7598 27.5527 38.8536 27.6464C38.9473 27.7402 39 27.8674 39 28V30H31V28ZM24 43V39H29V40.5C29 40.8978 29.158 41.2794 29.4393 41.5607C29.7206 41.842 30.1022 42 30.5 42C30.8978 42 31.2794 41.842 31.5607 41.5607C31.842 41.2794 32 40.8978 32 40.5V39H38V40.5C38 40.8978 38.158 41.2794 38.4393 41.5607C38.7206 41.842 39.1022 42 39.5 42C39.8978 42 40.2794 41.842 40.5607 41.5607C40.842 41.2794 41 40.8978 41 40.5V39H46V43C46 43.7957 45.6839 44.5587 45.1213 45.1213C44.5587 45.6839 43.7957 46 43 46H27C26.2044 46 25.4413 45.6839 24.8787 45.1213C24.3161 44.5587 24 43.7957 24 43Z" fill="white"/>
</svg>
