<svg width="24" height="48" viewBox="0 0 24 48" fill="none" xmlns="http://www.w3.org/2000/svg">
<path d="M20.3 11.2H23.5V35.7C23.5 38.9667 22.35 41.75 20.05 44.05C17.75 46.35 14.9833 47.5 11.75 47.5C8.51667 47.5 5.75 46.35 3.45 44.05C1.15 41.75 0 38.9667 0 35.7V9.1C0 6.7 0.833333 4.66667 2.5 3C4.16667 1.33333 6.18333 0.5 8.55 0.5C10.9167 0.5 12.9333 1.33333 14.6 3C16.2667 4.66667 17.1 6.7 17.1 9.1V31.5C17.1 32.9667 16.5667 34.2167 15.5 35.25C14.4333 36.2833 13.1667 36.8 11.7 36.8C10.2333 36.8 8.98333 36.2833 7.95 35.25C6.91667 34.2167 6.4 32.9667 6.4 31.5V11.2H9.6V31.5C9.6 32.0333 9.81667 32.5167 10.25 32.95C10.6833 33.3833 11.1833 33.6 11.75 33.6C12.3167 33.6 12.8167 33.3833 13.25 32.95C13.6833 32.5167 13.9 32.0333 13.9 31.5V9.1C13.9 7.63333 13.3667 6.36667 12.3 5.3C11.2333 4.23333 9.96667 3.7 8.5 3.7C7.03333 3.7 5.78333 4.23333 4.75 5.3C3.71667 6.36667 3.2 7.63333 3.2 9.1V35.7C3.2 38.1 4.03333 40.1333 5.7 41.8C7.36667 43.4667 9.38333 44.3 11.75 44.3C14.1167 44.3 16.1333 43.4667 17.8 41.8C19.4667 40.1333 20.3 38.1 20.3 35.7V11.2Z" fill="#139EC7"/>
</svg>
