<svg width="32" height="32" viewBox="0 0 32 32" fill="none" xmlns="http://www.w3.org/2000/svg">
<g clip-path="url(#clip0_639_10035)">
<path d="M27.3062 4.68266C25.8218 3.19497 24.0581 2.01522 22.1163 1.21117C20.1746 0.407113 18.0932 -0.00539803 15.9916 -0.00267212C7.15424 -0.00267212 -0.00976562 7.16133 -0.00976562 15.9987C-0.00976562 20.4173 1.78223 24.4187 4.67823 27.3147C6.16267 28.8023 7.92641 29.9821 9.86813 30.7862C11.8098 31.5902 13.8913 32.0027 15.9929 32C24.8302 32 31.9942 24.836 31.9942 15.9987C31.9942 11.58 30.2022 7.57866 27.3062 4.68266ZM25.2502 25.252C24.0359 26.4695 22.5929 27.435 21.0042 28.0931C19.4155 28.7512 17.7125 29.0888 15.9929 29.0867C8.76223 29.0867 2.9009 23.2253 2.9009 15.9947C2.89875 14.2751 3.23641 12.572 3.89449 10.9834C4.55256 9.39467 5.51808 7.9517 6.73557 6.73733C7.94965 5.51982 9.39238 4.55428 10.9808 3.8962C12.5693 3.23811 14.2722 2.90046 15.9916 2.90266C23.2209 2.90266 29.0822 8.764 29.0822 15.9933C29.0845 17.7127 28.7469 19.4156 28.0888 21.0041C27.4307 22.5926 26.4651 24.0353 25.2476 25.2493L25.2502 25.252Z" fill="white"/>
<path d="M18.0501 16L23.1901 10.86C23.4436 10.5837 23.5806 10.2201 23.5725 9.84509C23.5643 9.47013 23.4117 9.1128 23.1464 8.84769C22.8811 8.58258 22.5237 8.43017 22.1487 8.42228C21.7738 8.4144 21.4103 8.55164 21.1341 8.80536L21.1354 8.80403L15.9954 13.944L10.8554 8.80403C10.579 8.55048 10.2154 8.41348 9.84045 8.42161C9.46549 8.42974 9.10816 8.58238 8.84305 8.84766C8.57793 9.11295 8.42553 9.47038 8.41764 9.84534C8.40976 10.2203 8.547 10.5838 8.80072 10.86L8.79939 10.8587L13.9394 15.9987L8.79939 21.1387C8.65477 21.2714 8.5385 21.4319 8.45757 21.6107C8.37664 21.7895 8.33272 21.9829 8.32847 22.1791C8.32421 22.3753 8.35971 22.5703 8.43281 22.7525C8.50592 22.9346 8.61512 23.1001 8.75385 23.2389C8.89258 23.3777 9.05797 23.487 9.24006 23.5602C9.42214 23.6335 9.61717 23.6691 9.81338 23.6649C10.0096 23.6608 10.2029 23.617 10.3818 23.5362C10.5606 23.4554 10.7213 23.3392 10.8541 23.1947L10.8554 23.1934L15.9954 18.0534L21.1354 23.1934C21.2681 23.338 21.4286 23.4543 21.6074 23.5352C21.7862 23.6161 21.9795 23.66 22.1758 23.6643C22.372 23.6685 22.567 23.633 22.7491 23.5599C22.9313 23.4868 23.0967 23.3776 23.2356 23.2389C23.3744 23.1002 23.4837 22.9348 23.5569 22.7527C23.6301 22.5706 23.6658 22.3756 23.6616 22.1794C23.6575 21.9832 23.6137 21.7898 23.5329 21.611C23.4521 21.4321 23.3359 21.2715 23.1914 21.1387L23.1901 21.1374L18.0501 16Z" fill="white"/>
</g>
<defs>
<clipPath id="clip0_639_10035">
<rect width="32" height="32" fill="white"/>
</clipPath>
</defs>
</svg>
