<svg width="56" height="57" viewBox="0 0 56 57" fill="none" xmlns="http://www.w3.org/2000/svg">
<path d="M28 0.5C35.4261 0.5 42.548 3.44999 47.799 8.70101C53.05 13.952 56 21.0739 56 28.5C56 35.9261 53.05 43.048 47.799 48.299C42.548 53.55 35.4261 56.5 28 56.5C20.5739 56.5 13.452 53.55 8.20101 48.299C2.94999 43.048 0 35.9261 0 28.5C0 21.0739 2.94999 13.952 8.20101 8.70101C13.452 3.44999 20.5739 0.5 28 0.5ZM28 52.5C34.3652 52.5 40.4697 49.9714 44.9706 45.4706C49.4714 40.9697 52 34.8652 52 28.5C52 22.1348 49.4714 16.0303 44.9706 11.5294C40.4697 7.02856 34.3652 4.5 28 4.5C21.6348 4.5 15.5303 7.02856 11.0294 11.5294C6.52856 16.0303 4 22.1348 4 28.5C4 34.8652 6.52856 40.9697 11.0294 45.4706C15.5303 49.9714 21.6348 52.5 28 52.5ZM25 37.024L37.788 28.5L25 19.976V37.024ZM25.664 15.608L41.256 26.004C41.6669 26.278 42.0038 26.6491 42.2368 27.0845C42.4698 27.52 42.5917 28.0062 42.5917 28.5C42.5917 28.9938 42.4698 29.48 42.2368 29.9155C42.0038 30.3509 41.6669 30.722 41.256 30.996L25.664 41.392C25.2122 41.6932 24.6872 41.8661 24.1448 41.8923C23.6025 41.9185 23.0632 41.797 22.5845 41.5408C22.1057 41.2846 21.7055 40.9033 21.4265 40.4375C21.1474 39.9717 21 39.439 21 38.896V18.1C21 17.557 21.1474 17.0243 21.4265 16.5585C21.7055 16.0927 22.1057 15.7114 22.5845 15.4552C23.0632 15.199 23.6025 15.0775 24.1448 15.1037C24.6872 15.1299 25.2122 15.3028 25.664 15.604V15.608Z" fill="#139EC7"/>
</svg>
