<svg width="16" height="16" viewBox="0 0 16 16" fill="none" xmlns="http://www.w3.org/2000/svg">
<path d="M11.27 9.5C11.33 9.005 11.375 8.51 11.375 8C11.375 7.49 11.33 6.995 11.27 6.5H13.805C13.925 6.98 14 7.4825 14 8C14 8.5175 13.925 9.02 13.805 9.5H11.27ZM9.9425 13.67C10.3925 12.8375 10.7375 11.9375 10.9775 11H13.19C12.4634 12.2512 11.3106 13.199 9.9425 13.67ZM9.755 9.5H6.245C6.17 9.005 6.125 8.51 6.125 8C6.125 7.49 6.17 6.9875 6.245 6.5H9.755C9.8225 6.9875 9.875 7.49 9.875 8C9.875 8.51 9.8225 9.005 9.755 9.5ZM8 13.97C7.3775 13.07 6.875 12.0725 6.5675 11H9.4325C9.125 12.0725 8.6225 13.07 8 13.97ZM5 5H2.81C3.52914 3.74541 4.6811 2.79611 6.05 2.33C5.6 3.1625 5.2625 4.0625 5 5ZM2.81 11H5C5.2625 11.9375 5.6 12.8375 6.05 13.67C4.68397 13.1987 3.53363 12.2508 2.81 11ZM2.195 9.5C2.075 9.02 2 8.5175 2 8C2 7.4825 2.075 6.98 2.195 6.5H4.73C4.67 6.995 4.625 7.49 4.625 8C4.625 8.51 4.67 9.005 4.73 9.5H2.195ZM8 2.0225C8.6225 2.9225 9.125 3.9275 9.4325 5H6.5675C6.875 3.9275 7.3775 2.9225 8 2.0225ZM13.19 5H10.9775C10.7428 4.07109 10.3952 3.17442 9.9425 2.33C11.3225 2.8025 12.47 3.755 13.19 5ZM8 0.5C3.8525 0.5 0.5 3.875 0.5 8C0.5 9.98912 1.29018 11.8968 2.6967 13.3033C3.39314 13.9997 4.21993 14.5522 5.12987 14.9291C6.03982 15.306 7.01509 15.5 8 15.5C9.98912 15.5 11.8968 14.7098 13.3033 13.3033C14.7098 11.8968 15.5 9.98912 15.5 8C15.5 7.01509 15.306 6.03982 14.9291 5.12987C14.5522 4.21993 13.9997 3.39314 13.3033 2.6967C12.6069 2.00026 11.7801 1.44781 10.8701 1.0709C9.96018 0.693993 8.98491 0.5 8 0.5Z" fill="white"/>
</svg>
